<svg width="89" height="89" viewBox="0 0 89 89" fill="none" xmlns="http://www.w3.org/2000/svg">
<g clip-path="url(#clip0_257_2519)">
<path d="M14.8329 11.8662H11.8662V14.8329H14.8329V11.8662Z" fill="#3368DC"/>
<path d="M17.7997 11.8662H14.833V14.8329H17.7997V11.8662Z" fill="#3368DC"/>
<path d="M20.7665 11.8662H17.7998V14.8329H20.7665V11.8662Z" fill="#3368DC"/>
<path d="M8.90026 14.833H5.93359V17.7997H8.90026V14.833Z" fill="#3368DC"/>
<path d="M11.8671 14.833H8.90039V17.7997H11.8671V14.833Z" fill="#3368DC"/>
<path d="M14.8329 14.833H11.8662V17.7997H14.8329V14.833Z" fill="#3368DC"/>
<path d="M17.7997 14.833H14.833V17.7997H17.7997V14.833Z" fill="#3368DC"/>
<path d="M20.7665 14.833H17.7998V17.7997H20.7665V14.833Z" fill="#3368DC"/>
<path d="M23.7333 14.833H20.7666V17.7997H23.7333V14.833Z" fill="#3368DC"/>
<path d="M5.93346 17.7998H2.9668V20.7665H5.93346V17.7998Z" fill="#3368DC"/>
<path d="M8.90026 17.7998H5.93359V20.7665H8.90026V17.7998Z" fill="#3368DC"/>
<path d="M11.8671 17.7998H8.90039V20.7665H11.8671V17.7998Z" fill="#3368DC"/>
<path d="M14.8329 17.7998H11.8662V20.7665H14.8329V17.7998Z" fill="#3368DC"/>
<path d="M17.7997 17.7998H14.833V20.7665H17.7997V17.7998Z" fill="white"/>
<path d="M20.7665 17.7998H17.7998V20.7665H20.7665V17.7998Z" fill="#3368DC"/>
<path d="M23.7333 17.7998H20.7666V20.7665H23.7333V17.7998Z" fill="#3368DC"/>
<path d="M5.93346 20.7666H2.9668V23.7333H5.93346V20.7666Z" fill="#3368DC"/>
<path d="M8.90026 20.7666H5.93359V23.7333H8.90026V20.7666Z" fill="#3368DC"/>
<path d="M11.8671 20.7666H8.90039V23.7333H11.8671V20.7666Z" fill="#3368DC"/>
<path d="M14.8329 20.7666H11.8662V23.7333H14.8329V20.7666Z" fill="#3368DC"/>
<path d="M17.7997 20.7666H14.833V23.7333H17.7997V20.7666Z" fill="#3368DC"/>
<path d="M20.7665 20.7666H17.7998V23.7333H20.7665V20.7666Z" fill="#3368DC"/>
<path d="M23.7333 20.7666H20.7666V23.7333H23.7333V20.7666Z" fill="#3368DC"/>
<path d="M8.90026 23.7334H5.93359V26.7001H8.90026V23.7334Z" fill="#3368DC"/>
<path d="M11.8671 23.7334H8.90039V26.7001H11.8671V23.7334Z" fill="#3368DC"/>
<path d="M14.8329 23.7334H11.8662V26.7001H14.8329V23.7334Z" fill="#3368DC"/>
<path d="M17.7997 23.7334H14.833V26.7001H17.7997V23.7334Z" fill="#3368DC"/>
<path d="M20.7665 23.7334H17.7998V26.7001H20.7665V23.7334Z" fill="#3368DC"/>
<path d="M23.7333 23.7334H20.7666V26.7001H23.7333V23.7334Z" fill="#3368DC"/>
<path d="M26.7001 23.7334H23.7334V26.7001H26.7001V23.7334Z" fill="#3368DC"/>
<path d="M17.7997 26.7002H14.833V29.6669H17.7997V26.7002Z" fill="#3368DC"/>
<path d="M20.7665 26.7002H17.7998V29.6669H20.7665V26.7002Z" fill="#3368DC"/>
<path d="M23.7333 26.7002H20.7666V29.6669H23.7333V26.7002Z" fill="#3368DC"/>
<path d="M26.7001 26.7002H23.7334V29.6669H26.7001V26.7002Z" fill="#3368DC"/>
<path d="M20.7665 29.667H17.7998V32.6337H20.7665V29.667Z" fill="#3368DC"/>
<path d="M23.7333 29.667H20.7666V32.6337H23.7333V29.667Z" fill="#3368DC"/>
<path d="M26.7001 29.667H23.7334V32.6337H26.7001V29.667Z" fill="#3368DC"/>
<path d="M20.7665 32.6338H17.7998V35.6005H20.7665V32.6338Z" fill="#3368DC"/>
<path d="M23.7333 32.6338H20.7666V35.6005H23.7333V32.6338Z" fill="#3368DC"/>
<path d="M26.7001 32.6338H23.7334V35.6005H26.7001V32.6338Z" fill="#3368DC"/>
<path d="M29.6669 32.6338H26.7002V35.6005H29.6669V32.6338Z" fill="#3368DC"/>
<path d="M23.7333 35.5996H20.7666V38.5663H23.7333V35.5996Z" fill="#3368DC"/>
<path d="M26.7001 35.5996H23.7334V38.5663H26.7001V35.5996Z" fill="#3368DC"/>
<path d="M29.6669 35.5996H26.7002V38.5663H29.6669V35.5996Z" fill="#3368DC"/>
<path d="M38.5663 35.5996H35.5996V38.5663H38.5663V35.5996Z" fill="#3368DC"/>
<path d="M41.5331 35.5996H38.5664V38.5663H41.5331V35.5996Z" fill="#3368DC"/>
<path d="M44.4999 35.5996H41.5332V38.5663H44.4999V35.5996Z" fill="#3368DC"/>
<path d="M47.4667 35.5996H44.5V38.5663H47.4667V35.5996Z" fill="#3368DC"/>
<path d="M50.4335 35.5996H47.4668V38.5663H50.4335V35.5996Z" fill="#3368DC"/>
<path d="M53.4003 35.5996H50.4336V38.5663H53.4003V35.5996Z" fill="#3368DC"/>
<path d="M56.3671 35.5996H53.4004V38.5663H56.3671V35.5996Z" fill="#3368DC"/>
<path d="M59.3329 35.5996H56.3662V38.5663H59.3329V35.5996Z" fill="#3368DC"/>
<path d="M62.2997 35.5996H59.333V38.5663H62.2997V35.5996Z" fill="#3368DC"/>
<path d="M65.2665 35.5996H62.2998V38.5663H65.2665V35.5996Z" fill="#3368DC"/>
<path d="M68.2333 35.5996H65.2666V38.5663H68.2333V35.5996Z" fill="#3368DC"/>
<path d="M23.7333 38.5664H20.7666V41.5331H23.7333V38.5664Z" fill="#3368DC"/>
<path d="M26.7001 38.5664H23.7334V41.5331H26.7001V38.5664Z" fill="#3368DC"/>
<path d="M29.6669 38.5664H26.7002V41.5331H29.6669V38.5664Z" fill="#3368DC"/>
<path d="M32.6337 38.5664H29.667V41.5331H32.6337V38.5664Z" fill="#3368DC"/>
<path d="M35.6005 38.5664H32.6338V41.5331H35.6005V38.5664Z" fill="#3368DC"/>
<path d="M38.5663 38.5664H35.5996V41.5331H38.5663V38.5664Z" fill="#3368DC"/>
<path d="M41.5331 38.5664H38.5664V41.5331H41.5331V38.5664Z" fill="#3368DC"/>
<path d="M44.4999 38.5664H41.5332V41.5331H44.4999V38.5664Z" fill="#3368DC"/>
<path d="M47.4667 38.5664H44.5V41.5331H47.4667V38.5664Z" fill="#3368DC"/>
<path d="M50.4335 38.5664H47.4668V41.5331H50.4335V38.5664Z" fill="#3368DC"/>
<path d="M53.4003 38.5664H50.4336V41.5331H53.4003V38.5664Z" fill="#3368DC"/>
<path d="M56.3671 38.5664H53.4004V41.5331H56.3671V38.5664Z" fill="#3368DC"/>
<path d="M59.3329 38.5664H56.3662V41.5331H59.3329V38.5664Z" fill="#3368DC"/>
<path d="M62.2997 38.5664H59.333V41.5331H62.2997V38.5664Z" fill="#3368DC"/>
<path d="M65.2665 38.5664H62.2998V41.5331H65.2665V38.5664Z" fill="#3368DC"/>
<path d="M68.2333 38.5664H65.2666V41.5331H68.2333V38.5664Z" fill="#3368DC"/>
<path d="M71.2001 38.5664H68.2334V41.5331H71.2001V38.5664Z" fill="#3368DC"/>
<path d="M74.1669 38.5664H71.2002V41.5331H74.1669V38.5664Z" fill="#3368DC"/>
<path d="M77.1337 38.5664H74.167V41.5331H77.1337V38.5664Z" fill="#3368DC"/>
<path d="M23.7333 41.5332H20.7666V44.4999H23.7333V41.5332Z" fill="#3368DC"/>
<path d="M26.7001 41.5332H23.7334V44.4999H26.7001V41.5332Z" fill="#3368DC"/>
<path d="M29.6669 41.5332H26.7002V44.4999H29.6669V41.5332Z" fill="#3368DC"/>
<path d="M32.6337 41.5332H29.667V44.4999H32.6337V41.5332Z" fill="#3368DC"/>
<path d="M35.6005 41.5332H32.6338V44.4999H35.6005V41.5332Z" fill="#3368DC"/>
<path d="M38.5663 41.5332H35.5996V44.4999H38.5663V41.5332Z" fill="#3368DC"/>
<path d="M41.5331 41.5332H38.5664V44.4999H41.5331V41.5332Z" fill="#3368DC"/>
<path d="M44.4999 41.5332H41.5332V44.4999H44.4999V41.5332Z" fill="#3368DC"/>
<path d="M47.4667 41.5332H44.5V44.4999H47.4667V41.5332Z" fill="#3368DC"/>
<path d="M50.4335 41.5332H47.4668V44.4999H50.4335V41.5332Z" fill="#3368DC"/>
<path d="M53.4003 41.5332H50.4336V44.4999H53.4003V41.5332Z" fill="#3368DC"/>
<path d="M56.3671 41.5332H53.4004V44.4999H56.3671V41.5332Z" fill="#3368DC"/>
<path d="M59.3329 41.5332H56.3662V44.4999H59.3329V41.5332Z" fill="#3368DC"/>
<path d="M62.2997 41.5332H59.333V44.4999H62.2997V41.5332Z" fill="#3368DC"/>
<path d="M65.2665 41.5332H62.2998V44.4999H65.2665V41.5332Z" fill="#3368DC"/>
<path d="M68.2333 41.5332H65.2666V44.4999H68.2333V41.5332Z" fill="#3368DC"/>
<path d="M71.2001 41.5332H68.2334V44.4999H71.2001V41.5332Z" fill="#3368DC"/>
<path d="M74.1669 41.5332H71.2002V44.4999H74.1669V41.5332Z" fill="#3368DC"/>
<path d="M77.1337 41.5332H74.167V44.4999H77.1337V41.5332Z" fill="#3368DC"/>
<path d="M80.1005 41.5332H77.1338V44.4999H80.1005V41.5332Z" fill="#3368DC"/>
<path d="M23.7333 44.5H20.7666V47.4667H23.7333V44.5Z" fill="#3368DC"/>
<path d="M26.7001 44.5H23.7334V47.4667H26.7001V44.5Z" fill="#3368DC"/>
<path d="M29.6669 44.5H26.7002V47.4667H29.6669V44.5Z" fill="#3368DC"/>
<path d="M32.6337 44.5H29.667V47.4667H32.6337V44.5Z" fill="#3368DC"/>
<path d="M35.6005 44.5H32.6338V47.4667H35.6005V44.5Z" fill="#3368DC"/>
<path d="M38.5663 44.5H35.5996V47.4667H38.5663V44.5Z" fill="#3368DC"/>
<path d="M41.5331 44.5H38.5664V47.4667H41.5331V44.5Z" fill="#3368DC"/>
<path d="M44.4999 44.5H41.5332V47.4667H44.4999V44.5Z" fill="#3368DC"/>
<path d="M47.4667 44.5H44.5V47.4667H47.4667V44.5Z" fill="#3368DC"/>
<path d="M50.4335 44.5H47.4668V47.4667H50.4335V44.5Z" fill="#3368DC"/>
<path d="M53.4003 44.5H50.4336V47.4667H53.4003V44.5Z" fill="#3368DC"/>
<path d="M56.3671 44.5H53.4004V47.4667H56.3671V44.5Z" fill="#3368DC"/>
<path d="M59.3329 44.5H56.3662V47.4667H59.3329V44.5Z" fill="#3368DC"/>
<path d="M62.2997 44.5H59.333V47.4667H62.2997V44.5Z" fill="#3368DC"/>
<path d="M65.2665 44.5H62.2998V47.4667H65.2665V44.5Z" fill="#3368DC"/>
<path d="M68.2333 44.5H65.2666V47.4667H68.2333V44.5Z" fill="#3368DC"/>
<path d="M71.2001 44.5H68.2334V47.4667H71.2001V44.5Z" fill="#3368DC"/>
<path d="M74.1669 44.5H71.2002V47.4667H74.1669V44.5Z" fill="#3368DC"/>
<path d="M77.1337 44.5H74.167V47.4667H77.1337V44.5Z" fill="#3368DC"/>
<path d="M80.1005 44.5H77.1338V47.4667H80.1005V44.5Z" fill="#3368DC"/>
<path d="M26.7001 47.4668H23.7334V50.4335H26.7001V47.4668Z" fill="#3368DC"/>
<path d="M29.6669 47.4668H26.7002V50.4335H29.6669V47.4668Z" fill="#3368DC"/>
<path d="M32.6337 47.4668H29.667V50.4335H32.6337V47.4668Z" fill="#3368DC"/>
<path d="M35.6005 47.4668H32.6338V50.4335H35.6005V47.4668Z" fill="#3368DC"/>
<path d="M38.5663 47.4668H35.5996V50.4335H38.5663V47.4668Z" fill="#3368DC"/>
<path d="M41.5331 47.4668H38.5664V50.4335H41.5331V47.4668Z" fill="#3368DC"/>
<path d="M44.4999 47.4668H41.5332V50.4335H44.4999V47.4668Z" fill="#3368DC"/>
<path d="M47.4667 47.4668H44.5V50.4335H47.4667V47.4668Z" fill="#3368DC"/>
<path d="M50.4335 47.4668H47.4668V50.4335H50.4335V47.4668Z" fill="#3368DC"/>
<path d="M53.4003 47.4668H50.4336V50.4335H53.4003V47.4668Z" fill="#3368DC"/>
<path d="M56.3671 47.4668H53.4004V50.4335H56.3671V47.4668Z" fill="#3368DC"/>
<path d="M59.3329 47.4668H56.3662V50.4335H59.3329V47.4668Z" fill="#3368DC"/>
<path d="M62.2997 47.4668H59.333V50.4335H62.2997V47.4668Z" fill="#3368DC"/>
<path d="M65.2665 47.4668H62.2998V50.4335H65.2665V47.4668Z" fill="#3368DC"/>
<path d="M68.2333 47.4668H65.2666V50.4335H68.2333V47.4668Z" fill="#3368DC"/>
<path d="M71.2001 47.4668H68.2334V50.4335H71.2001V47.4668Z" fill="#3368DC"/>
<path d="M74.1669 47.4668H71.2002V50.4335H74.1669V47.4668Z" fill="#3368DC"/>
<path d="M77.1337 47.4668H74.167V50.4335H77.1337V47.4668Z" fill="#3368DC"/>
<path d="M80.1005 47.4668H77.1338V50.4335H80.1005V47.4668Z" fill="#3368DC"/>
<path d="M83.0663 47.4668H80.0996V50.4335H83.0663V47.4668Z" fill="#3368DC"/>
<path d="M26.7001 50.4336H23.7334V53.4003H26.7001V50.4336Z" fill="#3368DC"/>
<path d="M29.6669 50.4336H26.7002V53.4003H29.6669V50.4336Z" fill="#3368DC"/>
<path d="M32.6337 50.4336H29.667V53.4003H32.6337V50.4336Z" fill="#3368DC"/>
<path d="M35.6005 50.4336H32.6338V53.4003H35.6005V50.4336Z" fill="#3368DC"/>
<path d="M38.5663 50.4336H35.5996V53.4003H38.5663V50.4336Z" fill="#3368DC"/>
<path d="M41.5331 50.4336H38.5664V53.4003H41.5331V50.4336Z" fill="#3368DC"/>
<path d="M44.4999 50.4336H41.5332V53.4003H44.4999V50.4336Z" fill="#3368DC"/>
<path d="M47.4667 50.4336H44.5V53.4003H47.4667V50.4336Z" fill="#3368DC"/>
<path d="M50.4335 50.4336H47.4668V53.4003H50.4335V50.4336Z" fill="#3368DC"/>
<path d="M53.4003 50.4336H50.4336V53.4003H53.4003V50.4336Z" fill="#3368DC"/>
<path d="M56.3671 50.4336H53.4004V53.4003H56.3671V50.4336Z" fill="#3368DC"/>
<path d="M59.3329 50.4336H56.3662V53.4003H59.3329V50.4336Z" fill="#3368DC"/>
<path d="M62.2997 50.4336H59.333V53.4003H62.2997V50.4336Z" fill="#3368DC"/>
<path d="M65.2665 50.4336H62.2998V53.4003H65.2665V50.4336Z" fill="#3368DC"/>
<path d="M68.2333 50.4336H65.2666V53.4003H68.2333V50.4336Z" fill="#3368DC"/>
<path d="M71.2001 50.4336H68.2334V53.4003H71.2001V50.4336Z" fill="#3368DC"/>
<path d="M74.1669 50.4336H71.2002V53.4003H74.1669V50.4336Z" fill="#3368DC"/>
<path d="M77.1337 50.4336H74.167V53.4003H77.1337V50.4336Z" fill="#3368DC"/>
<path d="M80.1005 50.4336H77.1338V53.4003H80.1005V50.4336Z" fill="#3368DC"/>
<path d="M83.0663 50.4336H80.0996V53.4003H83.0663V50.4336Z" fill="#3368DC"/>
<path d="M26.7001 53.4004H23.7334V56.3671H26.7001V53.4004Z" fill="#3368DC"/>
<path d="M29.6669 53.4004H26.7002V56.3671H29.6669V53.4004Z" fill="#3368DC"/>
<path d="M32.6337 53.4004H29.667V56.3671H32.6337V53.4004Z" fill="#3368DC"/>
<path d="M35.6005 53.4004H32.6338V56.3671H35.6005V53.4004Z" fill="#3368DC"/>
<path d="M38.5663 53.4004H35.5996V56.3671H38.5663V53.4004Z" fill="#3368DC"/>
<path d="M41.5331 53.4004H38.5664V56.3671H41.5331V53.4004Z" fill="#3368DC"/>
<path d="M44.4999 53.4004H41.5332V56.3671H44.4999V53.4004Z" fill="#3368DC"/>
<path d="M47.4667 53.4004H44.5V56.3671H47.4667V53.4004Z" fill="#3368DC"/>
<path d="M50.4335 53.4004H47.4668V56.3671H50.4335V53.4004Z" fill="#3368DC"/>
<path d="M53.4003 53.4004H50.4336V56.3671H53.4003V53.4004Z" fill="#3368DC"/>
<path d="M56.3671 53.4004H53.4004V56.3671H56.3671V53.4004Z" fill="#3368DC"/>
<path d="M59.3329 53.4004H56.3662V56.3671H59.3329V53.4004Z" fill="#3368DC"/>
<path d="M62.2997 53.4004H59.333V56.3671H62.2997V53.4004Z" fill="#3368DC"/>
<path d="M65.2665 53.4004H62.2998V56.3671H65.2665V53.4004Z" fill="#3368DC"/>
<path d="M68.2333 53.4004H65.2666V56.3671H68.2333V53.4004Z" fill="#3368DC"/>
<path d="M71.2001 53.4004H68.2334V56.3671H71.2001V53.4004Z" fill="#3368DC"/>
<path d="M74.1669 53.4004H71.2002V56.3671H74.1669V53.4004Z" fill="#3368DC"/>
<path d="M80.1005 53.4004H77.1338V56.3671H80.1005V53.4004Z" fill="#3368DC"/>
<path d="M83.0663 53.4004H80.0996V56.3671H83.0663V53.4004Z" fill="#3368DC"/>
<path d="M29.6669 56.3662H26.7002V59.3329H29.6669V56.3662Z" fill="#3368DC"/>
<path d="M32.6337 56.3662H29.667V59.3329H32.6337V56.3662Z" fill="#3368DC"/>
<path d="M35.6005 56.3662H32.6338V59.3329H35.6005V56.3662Z" fill="#3368DC"/>
<path d="M38.5663 56.3662H35.5996V59.3329H38.5663V56.3662Z" fill="#3368DC"/>
<path d="M41.5331 56.3662H38.5664V59.3329H41.5331V56.3662Z" fill="#3368DC"/>
<path d="M44.4999 56.3662H41.5332V59.3329H44.4999V56.3662Z" fill="#3368DC"/>
<path d="M47.4667 56.3662H44.5V59.3329H47.4667V56.3662Z" fill="#3368DC"/>
<path d="M50.4335 56.3662H47.4668V59.3329H50.4335V56.3662Z" fill="#3368DC"/>
<path d="M53.4003 56.3662H50.4336V59.3329H53.4003V56.3662Z" fill="#3368DC"/>
<path d="M56.3671 56.3662H53.4004V59.3329H56.3671V56.3662Z" fill="#3368DC"/>
<path d="M59.3329 56.3662H56.3662V59.3329H59.3329V56.3662Z" fill="#3368DC"/>
<path d="M62.2997 56.3662H59.333V59.3329H62.2997V56.3662Z" fill="#3368DC"/>
<path d="M65.2665 56.3662H62.2998V59.3329H65.2665V56.3662Z" fill="#3368DC"/>
<path d="M68.2333 56.3662H65.2666V59.3329H68.2333V56.3662Z" fill="#3368DC"/>
<path d="M71.2001 56.3662H68.2334V59.3329H71.2001V56.3662Z" fill="#3368DC"/>
<path d="M80.1005 56.3662H77.1338V59.3329H80.1005V56.3662Z" fill="#3368DC"/>
<path d="M83.0663 56.3662H80.0996V59.3329H83.0663V56.3662Z" fill="#3368DC"/>
<path d="M29.6669 59.333H26.7002V62.2997H29.6669V59.333Z" fill="#3368DC"/>
<path d="M32.6337 59.333H29.667V62.2997H32.6337V59.333Z" fill="#3368DC"/>
<path d="M38.5663 59.333H35.5996V62.2997H38.5663V59.333Z" fill="#3368DC"/>
<path d="M41.5331 59.333H38.5664V62.2997H41.5331V59.333Z" fill="#3368DC"/>
<path d="M59.3329 59.333H56.3662V62.2997H59.3329V59.333Z" fill="#3368DC"/>
<path d="M62.2997 59.333H59.333V62.2997H62.2997V59.333Z" fill="#3368DC"/>
<path d="M68.2333 59.333H65.2666V62.2997H68.2333V59.333Z" fill="#3368DC"/>
<path d="M83.0663 59.333H80.0996V62.2997H83.0663V59.333Z" fill="#3368DC"/>
<path d="M86.0331 59.333H83.0664V62.2997H86.0331V59.333Z" fill="#3368DC"/>
<path d="M29.6669 62.2998H26.7002V65.2665H29.6669V62.2998Z" fill="#3368DC"/>
<path d="M38.5663 62.2998H35.5996V65.2665H38.5663V62.2998Z" fill="#3368DC"/>
<path d="M59.3329 62.2998H56.3662V65.2665H59.3329V62.2998Z" fill="#3368DC"/>
<path d="M68.2333 62.2998H65.2666V65.2665H68.2333V62.2998Z" fill="#3368DC"/>
<path d="M83.0663 62.2998H80.0996V65.2665H83.0663V62.2998Z" fill="#3368DC"/>
<path d="M86.0331 62.2998H83.0664V65.2665H86.0331V62.2998Z" fill="#3368DC"/>
<path d="M23.7333 65.2666H20.7666V68.2333H23.7333V65.2666Z" fill="#3368DC"/>
<path d="M26.7001 65.2666H23.7334V68.2333H26.7001V65.2666Z" fill="#3368DC"/>
<path d="M29.6669 65.2666H26.7002V68.2333H29.6669V65.2666Z" fill="#3368DC"/>
<path d="M35.6005 65.2666H32.6338V68.2333H35.6005V65.2666Z" fill="#3368DC"/>
<path d="M38.5663 65.2666H35.5996V68.2333H38.5663V65.2666Z" fill="#3368DC"/>
<path d="M53.4003 65.2666H50.4336V68.2333H53.4003V65.2666Z" fill="#3368DC"/>
<path d="M56.3671 65.2666H53.4004V68.2333H56.3671V65.2666Z" fill="#3368DC"/>
<path d="M59.3329 65.2666H56.3662V68.2333H59.3329V65.2666Z" fill="#3368DC"/>
<path d="M65.2665 65.2666H62.2998V68.2333H65.2665V65.2666Z" fill="#3368DC"/>
<path d="M68.2333 65.2666H65.2666V68.2333H68.2333V65.2666Z" fill="#3368DC"/>
<path d="M86.0331 65.2666H83.0664V68.2333H86.0331V65.2666Z" fill="#3368DC"/>
<path d="M88.9999 65.2666H86.0332V68.2333H88.9999V65.2666Z" fill="#3368DC"/>
</g>
<defs>
<clipPath id="clip0_257_2519">
<rect width="89" height="89" fill="white"/>
</clipPath>
</defs>
</svg>
