<svg width="84" height="69" viewBox="0 0 84 69" fill="none" xmlns="http://www.w3.org/2000/svg">
<path d="M3.00216 0H6.00213V2.99997H3.00216V0Z" fill="#FF4F69"/>
<path d="M0.000115385 0H3.00009V2.99997H0.000115385V0Z" fill="#FF4F69"/>
<path d="M59.9989 3.00009H62.9989V6.00005H59.9989V3.00009Z" fill="#FF4F69"/>
<path d="M12.0014 3.00009H15.0014V6.00005H12.0014V3.00009Z" fill="#FF4F69"/>
<path d="M9.00037 3.00009H12.0003V6.00005H9.00037V3.00009Z" fill="#FF4F69"/>
<path d="M6.00029 3.00009H9.00026V6.00005H6.00029V3.00009Z" fill="#FF4F69"/>
<path d="M3.00216 3.00009H6.00213V6.00005H3.00216V3.00009Z" fill="#FF4F69"/>
<path d="M62.9999 5.99919H65.9999V8.99916H62.9999V5.99919Z" fill="#FF4F69"/>
<path d="M20.9997 5.99919H23.9997V8.99916H20.9997V5.99919Z" fill="#FF4F69"/>
<path d="M17.9996 5.99919H20.9996V8.99916H17.9996V5.99919Z" fill="#FF4F69"/>
<path d="M14.9996 5.99919H17.9995V8.99916H14.9996V5.99919Z" fill="#FF4F69"/>
<path d="M12.0014 5.99919H15.0014V8.99916H12.0014V5.99919Z" fill="#FF4F69"/>
<path d="M9.00037 5.99919H12.0003V8.99916H9.00037V5.99919Z" fill="#FF4F69"/>
<path d="M6.00029 5.99919H9.00026V8.99916H6.00029V5.99919Z" fill="#FF4F69"/>
<path d="M65.9981 9.00026H68.998V12.0002H65.9981V9.00026Z" fill="#FF4F69"/>
<path d="M62.9999 9.00026H65.9999V12.0002H62.9999V9.00026Z" fill="#FF4F69"/>
<path d="M26.9999 9.00026H29.9999V12.0002H26.9999V9.00026Z" fill="#FF4F69"/>
<path d="M24.0018 9.00026H27.0017V12.0002H24.0018V9.00026Z" fill="#FF4F69"/>
<path d="M20.9997 9.00026H23.9997V12.0002H20.9997V9.00026Z" fill="#FF4F69"/>
<path d="M17.9996 9.00026H20.9996V12.0002H17.9996V9.00026Z" fill="#FF4F69"/>
<path d="M14.9996 9.00026H17.9995V12.0002H14.9996V9.00026Z" fill="#FF4F69"/>
<path d="M12.0014 9.00026H15.0014V12.0002H12.0014V9.00026Z" fill="#FF4F69"/>
<path d="M9.00037 9.00026H12.0003V12.0002H9.00037V9.00026Z" fill="#FF4F69"/>
<path d="M72.0002 12.0003H75.0002V15.0003H72.0002V12.0003Z" fill="#FF4F69"/>
<path d="M68.9991 12.0003H71.9991V15.0003H68.9991V12.0003Z" fill="#FF4F69"/>
<path d="M65.9981 12.0003H68.998V15.0003H65.9981V12.0003Z" fill="#FF4F69"/>
<path d="M62.9999 12.0003H65.9999V15.0003H62.9999V12.0003Z" fill="#FF4F69"/>
<path d="M59.9989 12.0003H62.9989V15.0003H59.9989V12.0003Z" fill="#FF4F69"/>
<path d="M30.001 12.0003H33.0009V15.0003H30.001V12.0003Z" fill="#FF4F69"/>
<path d="M26.9999 12.0003H29.9999V15.0003H26.9999V12.0003Z" fill="#FF4F69"/>
<path d="M24.0018 12.0003H27.0017V15.0003H24.0018V12.0003Z" fill="#FF4F69"/>
<path d="M20.9997 12.0003H23.9997V15.0003H20.9997V12.0003Z" fill="#FF4F69"/>
<path d="M17.9996 12.0003H20.9996V15.0003H17.9996V12.0003Z" fill="#FF4F69"/>
<path d="M14.9996 12.0003H17.9995V15.0003H14.9996V12.0003Z" fill="#FF4F69"/>
<path d="M12.0014 12.0003H15.0014V15.0003H12.0014V12.0003Z" fill="#FF4F69"/>
<path d="M75.0013 15.0004H78.0012V18.0004H75.0013V15.0004Z" fill="#FF4F69"/>
<path d="M72.0002 15.0004H75.0002V18.0004H72.0002V15.0004Z" fill="#FF4F69"/>
<path d="M68.9991 15.0004H71.9991V18.0004H68.9991V15.0004Z" fill="#FF4F69"/>
<path d="M65.9981 15.0004H68.998V18.0004H65.9981V15.0004Z" fill="white"/>
<path d="M62.9999 15.0004H65.9999V18.0004H62.9999V15.0004Z" fill="#FF4F69"/>
<path d="M59.9989 15.0004H62.9989V18.0004H59.9989V15.0004Z" fill="#FF4F69"/>
<path d="M33.0001 15.0004H36V18.0004H33.0001V15.0004Z" fill="#FF4F69"/>
<path d="M30.001 15.0004H33.0009V18.0004H30.001V15.0004Z" fill="#FF4F69"/>
<path d="M26.9999 15.0004H29.9999V18.0004H26.9999V15.0004Z" fill="#FF4F69"/>
<path d="M24.0018 15.0004H27.0017V18.0004H24.0018V15.0004Z" fill="#FF4F69"/>
<path d="M20.9997 15.0004H23.9997V18.0004H20.9997V15.0004Z" fill="#FF4F69"/>
<path d="M17.9996 15.0004H20.9996V18.0004H17.9996V15.0004Z" fill="#FF4F69"/>
<path d="M14.9996 15.0004H17.9995V18.0004H14.9996V15.0004Z" fill="#FF4F69"/>
<path d="M75.0013 17.9995H78.0012V20.9995H75.0013V17.9995Z" fill="#FF4F69"/>
<path d="M72.0002 17.9995H75.0002V20.9995H72.0002V17.9995Z" fill="#FF4F69"/>
<path d="M68.9991 17.9995H71.9991V20.9995H68.9991V17.9995Z" fill="#FF4F69"/>
<path d="M65.9981 17.9995H68.998V20.9995H65.9981V17.9995Z" fill="#FF4F69"/>
<path d="M62.9999 17.9995H65.9999V20.9995H62.9999V17.9995Z" fill="#FF4F69"/>
<path d="M59.9989 17.9995H62.9989V20.9995H59.9989V17.9995Z" fill="#FF4F69"/>
<path d="M35.9992 17.9995H38.9991V20.9995H35.9992V17.9995Z" fill="#FF4F69"/>
<path d="M33.0001 17.9995H36V20.9995H33.0001V17.9995Z" fill="#FF4F69"/>
<path d="M30.001 17.9995H33.0009V20.9995H30.001V17.9995Z" fill="#FF4F69"/>
<path d="M26.9999 17.9995H29.9999V20.9995H26.9999V17.9995Z" fill="#FF4F69"/>
<path d="M24.0018 17.9995H27.0017V20.9995H24.0018V17.9995Z" fill="#FF4F69"/>
<path d="M20.9997 17.9995H23.9997V20.9995H20.9997V17.9995Z" fill="#FF4F69"/>
<path d="M17.9996 17.9995H20.9996V20.9995H17.9996V17.9995Z" fill="#FF4F69"/>
<path d="M14.9996 17.9995H17.9995V20.9995H14.9996V17.9995Z" fill="#FF4F69"/>
<path d="M77.9994 21.0006H80.9994V24.0006H77.9994V21.0006Z" fill="#FF4F69"/>
<path d="M75.0013 21.0006H78.0012V24.0006H75.0013V21.0006Z" fill="#FF4F69"/>
<path d="M72.0002 21.0006H75.0002V24.0006H72.0002V21.0006Z" fill="#FF4F69"/>
<path d="M68.9991 21.0006H71.9991V24.0006H68.9991V21.0006Z" fill="#FF4F69"/>
<path d="M65.9981 21.0006H68.998V24.0006H65.9981V21.0006Z" fill="#FF4F69"/>
<path d="M62.9999 21.0006H65.9999V24.0006H62.9999V21.0006Z" fill="#FF4F69"/>
<path d="M59.9989 21.0006H62.9989V24.0006H59.9989V21.0006Z" fill="#FF4F69"/>
<path d="M56.9998 21.0006H59.9997V24.0006H56.9998V21.0006Z" fill="#FF4F69"/>
<path d="M38.9993 21.0006H41.9992V24.0006H38.9993V21.0006Z" fill="#FF4F69"/>
<path d="M35.9992 21.0006H38.9991V24.0006H35.9992V21.0006Z" fill="#FF4F69"/>
<path d="M33.0001 21.0006H36V24.0006H33.0001V21.0006Z" fill="#FF4F69"/>
<path d="M30.001 21.0006H33.0009V24.0006H30.001V21.0006Z" fill="#FF4F69"/>
<path d="M26.9999 21.0006H29.9999V24.0006H26.9999V21.0006Z" fill="#FF4F69"/>
<path d="M24.0018 21.0006H27.0017V24.0006H24.0018V21.0006Z" fill="#FF4F69"/>
<path d="M20.9997 21.0006H23.9997V24.0006H20.9997V21.0006Z" fill="#FF4F69"/>
<path d="M17.9996 21.0006H20.9996V24.0006H17.9996V21.0006Z" fill="#FF4F69"/>
<path d="M14.9996 21.0006H17.9995V24.0006H14.9996V21.0006Z" fill="#FF4F69"/>
<path d="M80.9995 23.9997H83.9994V26.9997H80.9995V23.9997Z" fill="#FF4F69"/>
<path d="M77.9994 23.9997H80.9994V26.9997H77.9994V23.9997Z" fill="#FF4F69"/>
<path d="M65.9981 23.9997H68.998V26.9997H65.9981V23.9997Z" fill="#FF4F69"/>
<path d="M62.9999 23.9997H65.9999V26.9997H62.9999V23.9997Z" fill="#FF4F69"/>
<path d="M59.9989 23.9997H62.9989V26.9997H59.9989V23.9997Z" fill="#FF4F69"/>
<path d="M56.9998 23.9997H59.9997V26.9997H56.9998V23.9997Z" fill="#FF4F69"/>
<path d="M42.0003 23.9997H45.0003V26.9997H42.0003V23.9997Z" fill="#FF4F69"/>
<path d="M38.9993 23.9997H41.9992V26.9997H38.9993V23.9997Z" fill="#FF4F69"/>
<path d="M35.9992 23.9997H38.9991V26.9997H35.9992V23.9997Z" fill="#FF4F69"/>
<path d="M33.0001 23.9997H36V26.9997H33.0001V23.9997Z" fill="#FF4F69"/>
<path d="M30.001 23.9997H33.0009V26.9997H30.001V23.9997Z" fill="#FF4F69"/>
<path d="M26.9999 23.9997H29.9999V26.9997H26.9999V23.9997Z" fill="#FF4F69"/>
<path d="M24.0018 23.9997H27.0017V26.9997H24.0018V23.9997Z" fill="#FF4F69"/>
<path d="M20.9997 23.9997H23.9997V26.9997H20.9997V23.9997Z" fill="#FF4F69"/>
<path d="M17.9996 23.9997H20.9996V26.9997H17.9996V23.9997Z" fill="#FF4F69"/>
<path d="M62.9999 26.9988H65.9999V29.9988H62.9999V26.9988Z" fill="#FF4F69"/>
<path d="M59.9989 26.9988H62.9989V29.9988H59.9989V26.9988Z" fill="#FF4F69"/>
<path d="M56.9998 26.9988H59.9997V29.9988H56.9998V26.9988Z" fill="#FF4F69"/>
<path d="M54.0007 26.9988H57.0006V29.9988H54.0007V26.9988Z" fill="#FF4F69"/>
<path d="M44.9975 26.9988H47.9974V29.9988H44.9975V26.9988Z" fill="#FF4F69"/>
<path d="M42.0003 26.9988H45.0003V29.9988H42.0003V26.9988Z" fill="#FF4F69"/>
<path d="M38.9993 26.9988H41.9992V29.9988H38.9993V26.9988Z" fill="#FF4F69"/>
<path d="M35.9992 26.9988H38.9991V29.9988H35.9992V26.9988Z" fill="#FF4F69"/>
<path d="M33.0001 26.9988H36V29.9988H33.0001V26.9988Z" fill="#FF4F69"/>
<path d="M30.001 26.9988H33.0009V29.9988H30.001V26.9988Z" fill="#FF4F69"/>
<path d="M26.9999 26.9988H29.9999V29.9988H26.9999V26.9988Z" fill="#FF4F69"/>
<path d="M24.0018 26.9988H27.0017V29.9988H24.0018V26.9988Z" fill="#FF4F69"/>
<path d="M20.9997 26.9988H23.9997V29.9988H20.9997V26.9988Z" fill="#FF4F69"/>
<path d="M0.000115385 26.9988H3.00009V29.9988H0.000115385V26.9988Z" fill="#FF4F69"/>
<path d="M62.9999 29.9989H65.9999V32.9989H62.9999V29.9989Z" fill="#FF4F69"/>
<path d="M59.9989 29.9989H62.9989V32.9989H59.9989V29.9989Z" fill="#FF4F69"/>
<path d="M56.9998 29.9989H59.9997V32.9989H56.9998V29.9989Z" fill="#FF4F69"/>
<path d="M54.0007 29.9989H57.0006V32.9989H54.0007V29.9989Z" fill="#FF4F69"/>
<path d="M44.9975 29.9989H47.9974V32.9989H44.9975V29.9989Z" fill="#FF4F69"/>
<path d="M42.0003 29.9989H45.0003V32.9989H42.0003V29.9989Z" fill="#FF4F69"/>
<path d="M38.9993 29.9989H41.9992V32.9989H38.9993V29.9989Z" fill="#FF4F69"/>
<path d="M35.9992 29.9989H38.9991V32.9989H35.9992V29.9989Z" fill="#FF4F69"/>
<path d="M33.0001 29.9989H36V32.9989H33.0001V29.9989Z" fill="#FF4F69"/>
<path d="M30.001 29.9989H33.0009V32.9989H30.001V29.9989Z" fill="#FF4F69"/>
<path d="M26.9999 29.9989H29.9999V32.9989H26.9999V29.9989Z" fill="#FF4F69"/>
<path d="M24.0018 29.9989H27.0017V32.9989H24.0018V29.9989Z" fill="#FF4F69"/>
<path d="M20.9997 29.9989H23.9997V32.9989H20.9997V29.9989Z" fill="#FF4F69"/>
<path d="M17.9996 29.9989H20.9996V32.9989H17.9996V29.9989Z" fill="#FF4F69"/>
<path d="M14.9996 29.9989H17.9995V32.9989H14.9996V29.9989Z" fill="#FF4F69"/>
<path d="M6.00029 29.9989H9.00026V32.9989H6.00029V29.9989Z" fill="#FF4F69"/>
<path d="M3.00216 29.9989H6.00213V32.9989H3.00216V29.9989Z" fill="#FF4F69"/>
<path d="M0.000115385 29.9989H3.00009V32.9989H0.000115385V29.9989Z" fill="#FF4F69"/>
<path d="M59.9989 32.999H62.9989V35.9989H59.9989V32.999Z" fill="#FF4F69"/>
<path d="M56.9998 32.999H59.9997V35.9989H56.9998V32.999Z" fill="#FF4F69"/>
<path d="M54.0007 32.999H57.0006V35.9989H54.0007V32.999Z" fill="#FF4F69"/>
<path d="M51.0006 32.999H54.0006V35.9989H51.0006V32.999Z" fill="#FF4F69"/>
<path d="M48.0005 32.999H51.0005V35.9989H48.0005V32.999Z" fill="#FF4F69"/>
<path d="M44.9975 32.999H47.9974V35.9989H44.9975V32.999Z" fill="#FF4F69"/>
<path d="M42.0003 32.999H45.0003V35.9989H42.0003V32.999Z" fill="#FF4F69"/>
<path d="M38.9993 32.999H41.9992V35.9989H38.9993V32.999Z" fill="#FF4F69"/>
<path d="M35.9992 32.999H38.9991V35.9989H35.9992V32.999Z" fill="#FF4F69"/>
<path d="M33.0001 32.999H36V35.9989H33.0001V32.999Z" fill="#FF4F69"/>
<path d="M30.001 32.999H33.0009V35.9989H30.001V32.999Z" fill="#FF4F69"/>
<path d="M26.9999 32.999H29.9999V35.9989H26.9999V32.999Z" fill="#FF4F69"/>
<path d="M24.0018 32.999H27.0017V35.9989H24.0018V32.999Z" fill="#FF4F69"/>
<path d="M20.9997 32.999H23.9997V35.9989H20.9997V32.999Z" fill="#FF4F69"/>
<path d="M17.9996 32.999H20.9996V35.9989H17.9996V32.999Z" fill="#FF4F69"/>
<path d="M14.9996 32.999H17.9995V35.9989H14.9996V32.999Z" fill="#FF4F69"/>
<path d="M12.0014 32.999H15.0014V35.9989H12.0014V32.999Z" fill="#FF4F69"/>
<path d="M9.00037 32.999H12.0003V35.9989H9.00037V32.999Z" fill="#FF4F69"/>
<path d="M6.00029 32.999H9.00026V35.9989H6.00029V32.999Z" fill="#FF4F69"/>
<path d="M3.00216 32.999H6.00213V35.9989H3.00216V32.999Z" fill="#FF4F69"/>
<path d="M0.000115385 32.999H3.00009V35.9989H0.000115385V32.999Z" fill="#FF4F69"/>
<path d="M59.9989 36H62.9989V39H59.9989V36Z" fill="#FF4F69"/>
<path d="M56.9998 36H59.9997V39H56.9998V36Z" fill="#FF4F69"/>
<path d="M54.0007 36H57.0006V39H54.0007V36Z" fill="#FF4F69"/>
<path d="M51.0006 36H54.0006V39H51.0006V36Z" fill="#FF4F69"/>
<path d="M48.0005 36H51.0005V39H48.0005V36Z" fill="#FF4F69"/>
<path d="M44.9975 36H47.9974V39H44.9975V36Z" fill="#FF4F69"/>
<path d="M42.0003 36H45.0003V39H42.0003V36Z" fill="#FF4F69"/>
<path d="M38.9993 36H41.9992V39H38.9993V36Z" fill="#FF4F69"/>
<path d="M35.9992 36H38.9991V39H35.9992V36Z" fill="#FF4F69"/>
<path d="M33.0001 36H36V39H33.0001V36Z" fill="#FF4F69"/>
<path d="M30.001 36H33.0009V39H30.001V36Z" fill="#FF4F69"/>
<path d="M26.9999 36H29.9999V39H26.9999V36Z" fill="#FF4F69"/>
<path d="M24.0018 36H27.0017V39H24.0018V36Z" fill="#FF4F69"/>
<path d="M20.9997 36H23.9997V39H20.9997V36Z" fill="#FF4F69"/>
<path d="M17.9996 36H20.9996V39H17.9996V36Z" fill="#FF4F69"/>
<path d="M14.9996 36H17.9995V39H14.9996V36Z" fill="#FF4F69"/>
<path d="M12.0014 36H15.0014V39H12.0014V36Z" fill="#FF4F69"/>
<path d="M9.00037 36H12.0003V39H9.00037V36Z" fill="#FF4F69"/>
<path d="M6.00029 36H9.00026V39H6.00029V36Z" fill="#FF4F69"/>
<path d="M3.00216 36H6.00213V39H3.00216V36Z" fill="#FF4F69"/>
<path d="M59.9989 38.9991H62.9989V41.9991H59.9989V38.9991Z" fill="#FF4F69"/>
<path d="M56.9998 38.9991H59.9997V41.9991H56.9998V38.9991Z" fill="#FF4F69"/>
<path d="M54.0007 38.9991H57.0006V41.9991H54.0007V38.9991Z" fill="#FF4F69"/>
<path d="M51.0006 38.9991H54.0006V41.9991H51.0006V38.9991Z" fill="#FF4F69"/>
<path d="M48.0005 38.9991H51.0005V41.9991H48.0005V38.9991Z" fill="#FF4F69"/>
<path d="M44.9975 38.9991H47.9974V41.9991H44.9975V38.9991Z" fill="#FF4F69"/>
<path d="M42.0003 38.9991H45.0003V41.9991H42.0003V38.9991Z" fill="#FF4F69"/>
<path d="M38.9993 38.9991H41.9992V41.9991H38.9993V38.9991Z" fill="#FF4F69"/>
<path d="M35.9992 38.9991H38.9991V41.9991H35.9992V38.9991Z" fill="#FF4F69"/>
<path d="M33.0001 38.9991H36V41.9991H33.0001V38.9991Z" fill="#FF4F69"/>
<path d="M30.001 38.9991H33.0009V41.9991H30.001V38.9991Z" fill="#FF4F69"/>
<path d="M26.9999 38.9991H29.9999V41.9991H26.9999V38.9991Z" fill="#FF4F69"/>
<path d="M24.0018 38.9991H27.0017V41.9991H24.0018V38.9991Z" fill="#FF4F69"/>
<path d="M20.9997 38.9991H23.9997V41.9991H20.9997V38.9991Z" fill="#FF4F69"/>
<path d="M17.9996 38.9991H20.9996V41.9991H17.9996V38.9991Z" fill="#FF4F69"/>
<path d="M14.9996 38.9991H17.9995V41.9991H14.9996V38.9991Z" fill="#FF4F69"/>
<path d="M12.0014 38.9991H15.0014V41.9991H12.0014V38.9991Z" fill="#FF4F69"/>
<path d="M9.00037 38.9991H12.0003V41.9991H9.00037V38.9991Z" fill="#FF4F69"/>
<path d="M6.00029 38.9991H9.00026V41.9991H6.00029V38.9991Z" fill="#FF4F69"/>
<path d="M56.9998 42.0002H59.9997V45.0002H56.9998V42.0002Z" fill="#FF4F69"/>
<path d="M54.0007 42.0002H57.0006V45.0002H54.0007V42.0002Z" fill="#FF4F69"/>
<path d="M51.0006 42.0002H54.0006V45.0002H51.0006V42.0002Z" fill="#FF4F69"/>
<path d="M48.0005 42.0002H51.0005V45.0002H48.0005V42.0002Z" fill="#FF4F69"/>
<path d="M44.9975 42.0002H47.9974V45.0002H44.9975V42.0002Z" fill="#FF4F69"/>
<path d="M42.0003 42.0002H45.0003V45.0002H42.0003V42.0002Z" fill="#FF4F69"/>
<path d="M38.9993 42.0002H41.9992V45.0002H38.9993V42.0002Z" fill="#FF4F69"/>
<path d="M35.9992 42.0002H38.9991V45.0002H35.9992V42.0002Z" fill="#FF4F69"/>
<path d="M33.0001 42.0002H36V45.0002H33.0001V42.0002Z" fill="#FF4F69"/>
<path d="M30.001 42.0002H33.0009V45.0002H30.001V42.0002Z" fill="#FF4F69"/>
<path d="M26.9999 42.0002H29.9999V45.0002H26.9999V42.0002Z" fill="#FF4F69"/>
<path d="M24.0018 42.0002H27.0017V45.0002H24.0018V42.0002Z" fill="#FF4F69"/>
<path d="M20.9997 42.0002H23.9997V45.0002H20.9997V42.0002Z" fill="#FF4F69"/>
<path d="M17.9996 42.0002H20.9996V45.0002H17.9996V42.0002Z" fill="#FF4F69"/>
<path d="M14.9996 42.0002H17.9995V45.0002H14.9996V42.0002Z" fill="#FF4F69"/>
<path d="M12.0014 42.0002H15.0014V45.0002H12.0014V42.0002Z" fill="#FF4F69"/>
<path d="M9.00037 42.0002H12.0003V45.0002H9.00037V42.0002Z" fill="#FF4F69"/>
<path d="M6.00029 42.0002H9.00026V45.0002H6.00029V42.0002Z" fill="#FF4F69"/>
<path d="M54.0007 45.0003H57.0006V48.0003H54.0007V45.0003Z" fill="#FF4F69"/>
<path d="M51.0006 45.0003H54.0006V48.0003H51.0006V45.0003Z" fill="#FF4F69"/>
<path d="M48.0005 45.0003H51.0005V48.0003H48.0005V45.0003Z" fill="#FF4F69"/>
<path d="M44.9975 45.0003H47.9974V48.0003H44.9975V45.0003Z" fill="#FF4F69"/>
<path d="M42.0003 45.0003H45.0003V48.0003H42.0003V45.0003Z" fill="#FF4F69"/>
<path d="M38.9993 45.0003H41.9992V48.0003H38.9993V45.0003Z" fill="#FF4F69"/>
<path d="M35.9992 45.0003H38.9991V48.0003H35.9992V45.0003Z" fill="#FF4F69"/>
<path d="M33.0001 45.0003H36V48.0003H33.0001V45.0003Z" fill="#FF4F69"/>
<path d="M30.001 45.0003H33.0009V48.0003H30.001V45.0003Z" fill="#FF4F69"/>
<path d="M26.9999 45.0003H29.9999V48.0003H26.9999V45.0003Z" fill="#FF4F69"/>
<path d="M24.0018 45.0003H27.0017V48.0003H24.0018V45.0003Z" fill="#FF4F69"/>
<path d="M20.9997 45.0003H23.9997V48.0003H20.9997V45.0003Z" fill="#FF4F69"/>
<path d="M17.9996 45.0003H20.9996V48.0003H17.9996V45.0003Z" fill="#FF4F69"/>
<path d="M14.9996 45.0003H17.9995V48.0003H14.9996V45.0003Z" fill="#FF4F69"/>
<path d="M12.0014 45.0003H15.0014V48.0003H12.0014V45.0003Z" fill="#FF4F69"/>
<path d="M9.00037 45.0003H12.0003V48.0003H9.00037V45.0003Z" fill="#FF4F69"/>
<path d="M51.0006 47.9994H54.0006V50.9994H51.0006V47.9994Z" fill="#FF4F69"/>
<path d="M48.0005 47.9994H51.0005V50.9994H48.0005V47.9994Z" fill="#FF4F69"/>
<path d="M44.9975 47.9994H47.9974V50.9994H44.9975V47.9994Z" fill="#FF4F69"/>
<path d="M42.0003 47.9994H45.0003V50.9994H42.0003V47.9994Z" fill="#FF4F69"/>
<path d="M38.9993 47.9994H41.9992V50.9994H38.9993V47.9994Z" fill="#FF4F69"/>
<path d="M35.9992 47.9994H38.9991V50.9994H35.9992V47.9994Z" fill="#FF4F69"/>
<path d="M33.0001 47.9994H36V50.9994H33.0001V47.9994Z" fill="#FF4F69"/>
<path d="M30.001 47.9994H33.0009V50.9994H30.001V47.9994Z" fill="#FF4F69"/>
<path d="M26.9999 47.9994H29.9999V50.9994H26.9999V47.9994Z" fill="#FF4F69"/>
<path d="M24.0018 47.9994H27.0017V50.9994H24.0018V47.9994Z" fill="#FF4F69"/>
<path d="M20.9997 47.9994H23.9997V50.9994H20.9997V47.9994Z" fill="#FF4F69"/>
<path d="M17.9996 47.9994H20.9996V50.9994H17.9996V47.9994Z" fill="#FF4F69"/>
<path d="M14.9996 47.9994H17.9995V50.9994H14.9996V47.9994Z" fill="#FF4F69"/>
<path d="M12.0014 47.9994H15.0014V50.9994H12.0014V47.9994Z" fill="#FF4F69"/>
<path d="M44.9975 50.9985H47.9974V53.9985H44.9975V50.9985Z" fill="#FF4F69"/>
<path d="M42.0003 50.9985H45.0003V53.9985H42.0003V50.9985Z" fill="#FF4F69"/>
<path d="M38.9993 50.9985H41.9992V53.9985H38.9993V50.9985Z" fill="#FF4F69"/>
<path d="M35.9992 50.9985H38.9991V53.9985H35.9992V50.9985Z" fill="#FF4F69"/>
<path d="M33.0001 50.9985H36V53.9985H33.0001V50.9985Z" fill="#FF4F69"/>
<path d="M30.001 50.9985H33.0009V53.9985H30.001V50.9985Z" fill="#FF4F69"/>
<path d="M26.9999 50.9985H29.9999V53.9985H26.9999V50.9985Z" fill="#FF4F69"/>
<path d="M24.0018 50.9985H27.0017V53.9985H24.0018V50.9985Z" fill="#FF4F69"/>
<path d="M20.9997 50.9985H23.9997V53.9985H20.9997V50.9985Z" fill="#FF4F69"/>
<path d="M17.9996 50.9985H20.9996V53.9985H17.9996V50.9985Z" fill="#FF4F69"/>
<path d="M14.9996 50.9985H17.9995V53.9985H14.9996V50.9985Z" fill="#FF4F69"/>
<path d="M35.9992 54.0006H38.9991V57.0005H35.9992V54.0006Z" fill="#FF4F69"/>
<path d="M33.0001 54.0006H36V57.0005H33.0001V54.0006Z" fill="#FF4F69"/>
<path d="M30.001 54.0006H33.0009V57.0005H30.001V54.0006Z" fill="#FF4F69"/>
<path d="M26.9999 54.0006H29.9999V57.0005H26.9999V54.0006Z" fill="#FF4F69"/>
<path d="M24.0018 54.0006H27.0017V57.0005H24.0018V54.0006Z" fill="#FF4F69"/>
<path d="M20.9997 54.0006H23.9997V57.0005H20.9997V54.0006Z" fill="#FF4F69"/>
<path d="M17.9996 54.0006H20.9996V57.0005H17.9996V54.0006Z" fill="#FF4F69"/>
<path d="M33.0001 56.9977H36V59.9977H33.0001V56.9977Z" fill="#FF4F69"/>
<path d="M30.001 56.9977H33.0009V59.9977H30.001V56.9977Z" fill="#FF4F69"/>
<path d="M26.9999 56.9977H29.9999V59.9977H26.9999V56.9977Z" fill="#FF4F69"/>
<path d="M24.0018 56.9977H27.0017V59.9977H24.0018V56.9977Z" fill="#FF4F69"/>
<path d="M17.9996 56.9977H20.9996V59.9977H17.9996V56.9977Z" fill="#FF4F69"/>
<path d="M14.9996 56.9977H17.9995V59.9977H14.9996V56.9977Z" fill="#FF4F69"/>
<path d="M12.0014 56.9977H15.0014V59.9977H12.0014V56.9977Z" fill="#FF4F69"/>
<path d="M9.00037 56.9977H12.0003V59.9977H9.00037V56.9977Z" fill="#FF4F69"/>
<path d="M24.0018 59.9997H27.0017V62.9997H24.0018V59.9997Z" fill="#FF4F69"/>
<path d="M9.00037 59.9997H12.0003V62.9997H9.00037V59.9997Z" fill="#FF4F69"/>
<path d="M24.0018 62.9989H27.0017V65.9988H24.0018V62.9989Z" fill="#FF4F69"/>
<path d="M20.9997 62.9989H23.9997V65.9988H20.9997V62.9989Z" fill="#FF4F69"/>
<path d="M17.9996 62.9989H20.9996V65.9988H17.9996V62.9989Z" fill="#FF4F69"/>
<path d="M14.9996 62.9989H17.9995V65.9988H14.9996V62.9989Z" fill="#FF4F69"/>
<path d="M14.9996 65.9999H17.9995V68.9999H14.9996V65.9999Z" fill="#FF4F69"/>
</svg>
