<svg width="74" height="61" viewBox="0 0 74 61" fill="none" xmlns="http://www.w3.org/2000/svg">
<path d="M71.3555 0H68.7127V2.64285H71.3555V0Z" fill="#49E7EC"/>
<path d="M74.0002 0H71.3573V2.64285H74.0002V0Z" fill="#49E7EC"/>
<path d="M21.1436 2.64268H18.5007V5.28553H21.1436V2.64268Z" fill="#49E7EC"/>
<path d="M63.4275 2.64268H60.7846V5.28553H63.4275V2.64268Z" fill="#49E7EC"/>
<path d="M66.0711 2.64268H63.4283V5.28553H66.0711V2.64268Z" fill="#49E7EC"/>
<path d="M68.7138 2.64268H66.071V5.28553H68.7138V2.64268Z" fill="#49E7EC"/>
<path d="M71.3555 2.64268H68.7127V5.28553H71.3555V2.64268Z" fill="#49E7EC"/>
<path d="M18.4999 5.28536H15.8571V7.92821H18.4999V5.28536Z" fill="#49E7EC"/>
<path d="M55.5004 5.28536H52.8576V7.92821H55.5004V5.28536Z" fill="#49E7EC"/>
<path d="M58.1431 5.28536H55.5002V7.92821H58.1431V5.28536Z" fill="#49E7EC"/>
<path d="M60.7858 5.28536H58.1429V7.92821H60.7858V5.28536Z" fill="#49E7EC"/>
<path d="M63.4275 5.28536H60.7846V7.92821H63.4275V5.28536Z" fill="#49E7EC"/>
<path d="M66.0711 5.28536H63.4283V7.92821H66.0711V5.28536Z" fill="#49E7EC"/>
<path d="M68.7138 5.28536H66.071V7.92821H68.7138V5.28536Z" fill="#49E7EC"/>
<path d="M15.8582 7.92903H13.2154V10.5719H15.8582V7.92903Z" fill="#49E7EC"/>
<path d="M18.4999 7.92903H15.8571V10.5719H18.4999V7.92903Z" fill="#49E7EC"/>
<path d="M50.2141 7.92903H47.5712V10.5719H50.2141V7.92903Z" fill="#49E7EC"/>
<path d="M52.8558 7.92903H50.2129V10.5719H52.8558V7.92903Z" fill="#49E7EC"/>
<path d="M55.5004 7.92903H52.8576V10.5719H55.5004V7.92903Z" fill="#49E7EC"/>
<path d="M58.1431 7.92903H55.5002V10.5719H58.1431V7.92903Z" fill="#49E7EC"/>
<path d="M60.7858 7.92903H58.1429V10.5719H60.7858V7.92903Z" fill="#49E7EC"/>
<path d="M63.4275 7.92903H60.7846V10.5719H63.4275V7.92903Z" fill="#49E7EC"/>
<path d="M66.0711 7.92903H63.4283V10.5719H66.0711V7.92903Z" fill="#49E7EC"/>
<path d="M10.5709 10.5717H7.92805V13.2146H10.5709V10.5717Z" fill="#49E7EC"/>
<path d="M13.2146 10.5717H10.5717V13.2146H13.2146V10.5717Z" fill="#49E7EC"/>
<path d="M15.8582 10.5717H13.2154V13.2146H15.8582V10.5717Z" fill="#49E7EC"/>
<path d="M18.4999 10.5717H15.8571V13.2146H18.4999V10.5717Z" fill="#49E7EC"/>
<path d="M21.1436 10.5717H18.5007V13.2146H21.1436V10.5717Z" fill="#49E7EC"/>
<path d="M47.5704 10.5717H44.9276V13.2146H47.5704V10.5717Z" fill="#49E7EC"/>
<path d="M50.2141 10.5717H47.5712V13.2146H50.2141V10.5717Z" fill="#49E7EC"/>
<path d="M52.8558 10.5717H50.2129V13.2146H52.8558V10.5717Z" fill="#49E7EC"/>
<path d="M55.5004 10.5717H52.8576V13.2146H55.5004V10.5717Z" fill="#49E7EC"/>
<path d="M58.1431 10.5717H55.5002V13.2146H58.1431V10.5717Z" fill="#49E7EC"/>
<path d="M60.7858 10.5717H58.1429V13.2146H60.7858V10.5717Z" fill="#49E7EC"/>
<path d="M63.4275 10.5717H60.7846V13.2146H63.4275V10.5717Z" fill="#49E7EC"/>
<path d="M7.92724 13.2144H5.28439V15.8572H7.92724V13.2144Z" fill="#49E7EC"/>
<path d="M10.5709 13.2144H7.92805V15.8572H10.5709V13.2144Z" fill="#49E7EC"/>
<path d="M13.2146 13.2144H10.5717V15.8572H13.2146V13.2144Z" fill="#49E7EC"/>
<path d="M15.8582 13.2144H13.2154V15.8572H15.8582V13.2144Z" fill="white"/>
<path d="M18.4999 13.2144H15.8571V15.8572H18.4999V13.2144Z" fill="#49E7EC"/>
<path d="M21.1436 13.2144H18.5007V15.8572H21.1436V13.2144Z" fill="#49E7EC"/>
<path d="M44.9287 13.2144H42.2859V15.8572H44.9287V13.2144Z" fill="#49E7EC"/>
<path d="M47.5704 13.2144H44.9276V15.8572H47.5704V13.2144Z" fill="#49E7EC"/>
<path d="M50.2141 13.2144H47.5712V15.8572H50.2141V13.2144Z" fill="#49E7EC"/>
<path d="M52.8558 13.2144H50.2129V15.8572H52.8558V13.2144Z" fill="#49E7EC"/>
<path d="M55.5004 13.2144H52.8576V15.8572H55.5004V13.2144Z" fill="#49E7EC"/>
<path d="M58.1431 13.2144H55.5002V15.8572H58.1431V13.2144Z" fill="#49E7EC"/>
<path d="M60.7858 13.2144H58.1429V15.8572H60.7858V13.2144Z" fill="#49E7EC"/>
<path d="M7.92724 15.8571H5.28439V18.4999H7.92724V15.8571Z" fill="#49E7EC"/>
<path d="M10.5709 15.8571H7.92805V18.4999H10.5709V15.8571Z" fill="#49E7EC"/>
<path d="M13.2146 15.8571H10.5717V18.4999H13.2146V15.8571Z" fill="#49E7EC"/>
<path d="M15.8582 15.8571H13.2154V18.4999H15.8582V15.8571Z" fill="#49E7EC"/>
<path d="M18.4999 15.8571H15.8571V18.4999H18.4999V15.8571Z" fill="#49E7EC"/>
<path d="M21.1436 15.8571H18.5007V18.4999H21.1436V15.8571Z" fill="#49E7EC"/>
<path d="M42.286 15.8571H39.6432V18.4999H42.286V15.8571Z" fill="#49E7EC"/>
<path d="M44.9287 15.8571H42.2859V18.4999H44.9287V15.8571Z" fill="#49E7EC"/>
<path d="M47.5704 15.8571H44.9276V18.4999H47.5704V15.8571Z" fill="#49E7EC"/>
<path d="M50.2141 15.8571H47.5712V18.4999H50.2141V15.8571Z" fill="#49E7EC"/>
<path d="M52.8558 15.8571H50.2129V18.4999H52.8558V15.8571Z" fill="#49E7EC"/>
<path d="M55.5004 15.8571H52.8576V18.4999H55.5004V15.8571Z" fill="#49E7EC"/>
<path d="M58.1431 15.8571H55.5002V18.4999H58.1431V15.8571Z" fill="#49E7EC"/>
<path d="M60.7858 15.8571H58.1429V18.4999H60.7858V15.8571Z" fill="#49E7EC"/>
<path d="M5.28553 18.5007H2.64268V21.1436H5.28553V18.5007Z" fill="#49E7EC"/>
<path d="M7.92724 18.5007H5.28439V21.1436H7.92724V18.5007Z" fill="#49E7EC"/>
<path d="M10.5709 18.5007H7.92805V21.1436H10.5709V18.5007Z" fill="#49E7EC"/>
<path d="M13.2146 18.5007H10.5717V21.1436H13.2146V18.5007Z" fill="#49E7EC"/>
<path d="M15.8582 18.5007H13.2154V21.1436H15.8582V18.5007Z" fill="#49E7EC"/>
<path d="M18.4999 18.5007H15.8571V21.1436H18.4999V18.5007Z" fill="#49E7EC"/>
<path d="M21.1436 18.5007H18.5007V21.1436H21.1436V18.5007Z" fill="#49E7EC"/>
<path d="M23.7853 18.5007H21.1424V21.1436H23.7853V18.5007Z" fill="#49E7EC"/>
<path d="M39.6433 18.5007H37.0005V21.1436H39.6433V18.5007Z" fill="#49E7EC"/>
<path d="M42.286 18.5007H39.6432V21.1436H42.286V18.5007Z" fill="#49E7EC"/>
<path d="M44.9287 18.5007H42.2859V21.1436H44.9287V18.5007Z" fill="#49E7EC"/>
<path d="M47.5704 18.5007H44.9276V21.1436H47.5704V18.5007Z" fill="#49E7EC"/>
<path d="M50.2141 18.5007H47.5712V21.1436H50.2141V18.5007Z" fill="#49E7EC"/>
<path d="M52.8558 18.5007H50.2129V21.1436H52.8558V18.5007Z" fill="#49E7EC"/>
<path d="M55.5004 18.5007H52.8576V21.1436H55.5004V18.5007Z" fill="#49E7EC"/>
<path d="M58.1431 18.5007H55.5002V21.1436H58.1431V18.5007Z" fill="#49E7EC"/>
<path d="M60.7858 18.5007H58.1429V21.1436H60.7858V18.5007Z" fill="#49E7EC"/>
<path d="M2.64285 21.1424H0V23.7853H2.64285V21.1424Z" fill="#49E7EC"/>
<path d="M5.28553 21.1424H2.64268V23.7853H5.28553V21.1424Z" fill="#49E7EC"/>
<path d="M15.8582 21.1424H13.2154V23.7853H15.8582V21.1424Z" fill="#49E7EC"/>
<path d="M18.4999 21.1424H15.8571V23.7853H18.4999V21.1424Z" fill="#49E7EC"/>
<path d="M21.1436 21.1424H18.5007V23.7853H21.1436V21.1424Z" fill="#49E7EC"/>
<path d="M23.7853 21.1424H21.1424V23.7853H23.7853V21.1424Z" fill="#49E7EC"/>
<path d="M36.9997 21.1424H34.3568V23.7853H36.9997V21.1424Z" fill="#49E7EC"/>
<path d="M39.6433 21.1424H37.0005V23.7853H39.6433V21.1424Z" fill="#49E7EC"/>
<path d="M42.286 21.1424H39.6432V23.7853H42.286V21.1424Z" fill="#49E7EC"/>
<path d="M44.9287 21.1424H42.2859V23.7853H44.9287V21.1424Z" fill="#49E7EC"/>
<path d="M47.5704 21.1424H44.9276V23.7853H47.5704V21.1424Z" fill="#49E7EC"/>
<path d="M50.2141 21.1424H47.5712V23.7853H50.2141V21.1424Z" fill="#49E7EC"/>
<path d="M52.8558 21.1424H50.2129V23.7853H52.8558V21.1424Z" fill="#49E7EC"/>
<path d="M55.5004 21.1424H52.8576V23.7853H55.5004V21.1424Z" fill="#49E7EC"/>
<path d="M58.1431 21.1424H55.5002V23.7853H58.1431V21.1424Z" fill="#49E7EC"/>
<path d="M18.4999 23.7851H15.8571V26.428H18.4999V23.7851Z" fill="#49E7EC"/>
<path d="M21.1436 23.7851H18.5007V26.428H21.1436V23.7851Z" fill="#49E7EC"/>
<path d="M23.7853 23.7851H21.1424V26.428H23.7853V23.7851Z" fill="#49E7EC"/>
<path d="M26.428 23.7851H23.7851V26.428H26.428V23.7851Z" fill="#49E7EC"/>
<path d="M34.359 23.7851H31.7161V26.428H34.359V23.7851Z" fill="#49E7EC"/>
<path d="M36.9997 23.7851H34.3568V26.428H36.9997V23.7851Z" fill="#49E7EC"/>
<path d="M39.6433 23.7851H37.0005V26.428H39.6433V23.7851Z" fill="#49E7EC"/>
<path d="M42.286 23.7851H39.6432V26.428H42.286V23.7851Z" fill="#49E7EC"/>
<path d="M44.9287 23.7851H42.2859V26.428H44.9287V23.7851Z" fill="#49E7EC"/>
<path d="M47.5704 23.7851H44.9276V26.428H47.5704V23.7851Z" fill="#49E7EC"/>
<path d="M50.2141 23.7851H47.5712V26.428H50.2141V23.7851Z" fill="#49E7EC"/>
<path d="M52.8558 23.7851H50.2129V26.428H52.8558V23.7851Z" fill="#49E7EC"/>
<path d="M55.5004 23.7851H52.8576V26.428H55.5004V23.7851Z" fill="#49E7EC"/>
<path d="M74.0002 23.7851H71.3573V26.428H74.0002V23.7851Z" fill="#49E7EC"/>
<path d="M18.4999 26.4278H15.8571V29.0707H18.4999V26.4278Z" fill="#49E7EC"/>
<path d="M21.1436 26.4278H18.5007V29.0707H21.1436V26.4278Z" fill="#49E7EC"/>
<path d="M23.7853 26.4278H21.1424V29.0707H23.7853V26.4278Z" fill="#49E7EC"/>
<path d="M26.428 26.4278H23.7851V29.0707H26.428V26.4278Z" fill="#49E7EC"/>
<path d="M34.359 26.4278H31.7161V29.0707H34.359V26.4278Z" fill="#49E7EC"/>
<path d="M36.9997 26.4278H34.3568V29.0707H36.9997V26.4278Z" fill="#49E7EC"/>
<path d="M39.6433 26.4278H37.0005V29.0707H39.6433V26.4278Z" fill="#49E7EC"/>
<path d="M42.286 26.4278H39.6432V29.0707H42.286V26.4278Z" fill="#49E7EC"/>
<path d="M44.9287 26.4278H42.2859V29.0707H44.9287V26.4278Z" fill="#49E7EC"/>
<path d="M47.5704 26.4278H44.9276V29.0707H47.5704V26.4278Z" fill="#49E7EC"/>
<path d="M50.2141 26.4278H47.5712V29.0707H50.2141V26.4278Z" fill="#49E7EC"/>
<path d="M52.8558 26.4278H50.2129V29.0707H52.8558V26.4278Z" fill="#49E7EC"/>
<path d="M55.5004 26.4278H52.8576V29.0707H55.5004V26.4278Z" fill="#49E7EC"/>
<path d="M58.1431 26.4278H55.5002V29.0707H58.1431V26.4278Z" fill="#49E7EC"/>
<path d="M60.7858 26.4278H58.1429V29.0707H60.7858V26.4278Z" fill="#49E7EC"/>
<path d="M68.7138 26.4278H66.071V29.0707H68.7138V26.4278Z" fill="#49E7EC"/>
<path d="M71.3555 26.4278H68.7127V29.0707H71.3555V26.4278Z" fill="#49E7EC"/>
<path d="M74.0002 26.4278H71.3573V29.0707H74.0002V26.4278Z" fill="#49E7EC"/>
<path d="M21.1436 29.0705H18.5007V31.7133H21.1436V29.0705Z" fill="#49E7EC"/>
<path d="M23.7853 29.0705H21.1424V31.7133H23.7853V29.0705Z" fill="#49E7EC"/>
<path d="M26.428 29.0705H23.7851V31.7133H26.428V29.0705Z" fill="#49E7EC"/>
<path d="M29.0707 29.0705H26.4278V31.7133H29.0707V29.0705Z" fill="#49E7EC"/>
<path d="M31.7133 29.0705H29.0705V31.7133H31.7133V29.0705Z" fill="#49E7EC"/>
<path d="M34.359 29.0705H31.7161V31.7133H34.359V29.0705Z" fill="#49E7EC"/>
<path d="M36.9997 29.0705H34.3568V31.7133H36.9997V29.0705Z" fill="#49E7EC"/>
<path d="M39.6433 29.0705H37.0005V31.7133H39.6433V29.0705Z" fill="#49E7EC"/>
<path d="M42.286 29.0705H39.6432V31.7133H42.286V29.0705Z" fill="#49E7EC"/>
<path d="M44.9287 29.0705H42.2859V31.7133H44.9287V29.0705Z" fill="#49E7EC"/>
<path d="M47.5704 29.0705H44.9276V31.7133H47.5704V29.0705Z" fill="#49E7EC"/>
<path d="M50.2141 29.0705H47.5712V31.7133H50.2141V29.0705Z" fill="#49E7EC"/>
<path d="M52.8558 29.0705H50.2129V31.7133H52.8558V29.0705Z" fill="#49E7EC"/>
<path d="M55.5004 29.0705H52.8576V31.7133H55.5004V29.0705Z" fill="#49E7EC"/>
<path d="M58.1431 29.0705H55.5002V31.7133H58.1431V29.0705Z" fill="#49E7EC"/>
<path d="M60.7858 29.0705H58.1429V31.7133H60.7858V29.0705Z" fill="#49E7EC"/>
<path d="M63.4275 29.0705H60.7846V31.7133H63.4275V29.0705Z" fill="#49E7EC"/>
<path d="M66.0711 29.0705H63.4283V31.7133H66.0711V29.0705Z" fill="#49E7EC"/>
<path d="M68.7138 29.0705H66.071V31.7133H68.7138V29.0705Z" fill="#49E7EC"/>
<path d="M71.3555 29.0705H68.7127V31.7133H71.3555V29.0705Z" fill="#49E7EC"/>
<path d="M74.0002 29.0705H71.3573V31.7133H74.0002V29.0705Z" fill="#49E7EC"/>
<path d="M21.1436 31.7141H18.5007V34.357H21.1436V31.7141Z" fill="#49E7EC"/>
<path d="M23.7853 31.7141H21.1424V34.357H23.7853V31.7141Z" fill="#49E7EC"/>
<path d="M26.428 31.7141H23.7851V34.357H26.428V31.7141Z" fill="#49E7EC"/>
<path d="M29.0707 31.7141H26.4278V34.357H29.0707V31.7141Z" fill="#49E7EC"/>
<path d="M31.7133 31.7141H29.0705V34.357H31.7133V31.7141Z" fill="#49E7EC"/>
<path d="M34.359 31.7141H31.7161V34.357H34.359V31.7141Z" fill="#49E7EC"/>
<path d="M36.9997 31.7141H34.3568V34.357H36.9997V31.7141Z" fill="#49E7EC"/>
<path d="M39.6433 31.7141H37.0005V34.357H39.6433V31.7141Z" fill="#49E7EC"/>
<path d="M42.286 31.7141H39.6432V34.357H42.286V31.7141Z" fill="#49E7EC"/>
<path d="M44.9287 31.7141H42.2859V34.357H44.9287V31.7141Z" fill="#49E7EC"/>
<path d="M47.5704 31.7141H44.9276V34.357H47.5704V31.7141Z" fill="#49E7EC"/>
<path d="M50.2141 31.7141H47.5712V34.357H50.2141V31.7141Z" fill="#49E7EC"/>
<path d="M52.8558 31.7141H50.2129V34.357H52.8558V31.7141Z" fill="#49E7EC"/>
<path d="M55.5004 31.7141H52.8576V34.357H55.5004V31.7141Z" fill="#49E7EC"/>
<path d="M58.1431 31.7141H55.5002V34.357H58.1431V31.7141Z" fill="#49E7EC"/>
<path d="M60.7858 31.7141H58.1429V34.357H60.7858V31.7141Z" fill="#49E7EC"/>
<path d="M63.4275 31.7141H60.7846V34.357H63.4275V31.7141Z" fill="#49E7EC"/>
<path d="M66.0711 31.7141H63.4283V34.357H66.0711V31.7141Z" fill="#49E7EC"/>
<path d="M68.7138 31.7141H66.071V34.357H68.7138V31.7141Z" fill="#49E7EC"/>
<path d="M71.3555 31.7141H68.7127V34.357H71.3555V31.7141Z" fill="#49E7EC"/>
<path d="M21.1436 34.3568H18.5007V36.9997H21.1436V34.3568Z" fill="#49E7EC"/>
<path d="M23.7853 34.3568H21.1424V36.9997H23.7853V34.3568Z" fill="#49E7EC"/>
<path d="M26.428 34.3568H23.7851V36.9997H26.428V34.3568Z" fill="#49E7EC"/>
<path d="M29.0707 34.3568H26.4278V36.9997H29.0707V34.3568Z" fill="#49E7EC"/>
<path d="M31.7133 34.3568H29.0705V36.9997H31.7133V34.3568Z" fill="#49E7EC"/>
<path d="M34.359 34.3568H31.7161V36.9997H34.359V34.3568Z" fill="#49E7EC"/>
<path d="M36.9997 34.3568H34.3568V36.9997H36.9997V34.3568Z" fill="#49E7EC"/>
<path d="M39.6433 34.3568H37.0005V36.9997H39.6433V34.3568Z" fill="#49E7EC"/>
<path d="M42.286 34.3568H39.6432V36.9997H42.286V34.3568Z" fill="#49E7EC"/>
<path d="M44.9287 34.3568H42.2859V36.9997H44.9287V34.3568Z" fill="#49E7EC"/>
<path d="M47.5704 34.3568H44.9276V36.9997H47.5704V34.3568Z" fill="#49E7EC"/>
<path d="M50.2141 34.3568H47.5712V36.9997H50.2141V34.3568Z" fill="#49E7EC"/>
<path d="M52.8558 34.3568H50.2129V36.9997H52.8558V34.3568Z" fill="#49E7EC"/>
<path d="M55.5004 34.3568H52.8576V36.9997H55.5004V34.3568Z" fill="#49E7EC"/>
<path d="M58.1431 34.3568H55.5002V36.9997H58.1431V34.3568Z" fill="#49E7EC"/>
<path d="M60.7858 34.3568H58.1429V36.9997H60.7858V34.3568Z" fill="#49E7EC"/>
<path d="M63.4275 34.3568H60.7846V36.9997H63.4275V34.3568Z" fill="#49E7EC"/>
<path d="M66.0711 34.3568H63.4283V36.9997H66.0711V34.3568Z" fill="#49E7EC"/>
<path d="M68.7138 34.3568H66.071V36.9997H68.7138V34.3568Z" fill="#49E7EC"/>
<path d="M23.7853 37.0005H21.1424V39.6433H23.7853V37.0005Z" fill="#49E7EC"/>
<path d="M26.428 37.0005H23.7851V39.6433H26.428V37.0005Z" fill="#49E7EC"/>
<path d="M29.0707 37.0005H26.4278V39.6433H29.0707V37.0005Z" fill="#49E7EC"/>
<path d="M31.7133 37.0005H29.0705V39.6433H31.7133V37.0005Z" fill="#49E7EC"/>
<path d="M34.359 37.0005H31.7161V39.6433H34.359V37.0005Z" fill="#49E7EC"/>
<path d="M36.9997 37.0005H34.3568V39.6433H36.9997V37.0005Z" fill="#49E7EC"/>
<path d="M39.6433 37.0005H37.0005V39.6433H39.6433V37.0005Z" fill="#49E7EC"/>
<path d="M42.286 37.0005H39.6432V39.6433H42.286V37.0005Z" fill="#49E7EC"/>
<path d="M44.9287 37.0005H42.2859V39.6433H44.9287V37.0005Z" fill="#49E7EC"/>
<path d="M47.5704 37.0005H44.9276V39.6433H47.5704V37.0005Z" fill="#49E7EC"/>
<path d="M50.2141 37.0005H47.5712V39.6433H50.2141V37.0005Z" fill="#49E7EC"/>
<path d="M52.8558 37.0005H50.2129V39.6433H52.8558V37.0005Z" fill="#49E7EC"/>
<path d="M55.5004 37.0005H52.8576V39.6433H55.5004V37.0005Z" fill="#49E7EC"/>
<path d="M58.1431 37.0005H55.5002V39.6433H58.1431V37.0005Z" fill="#49E7EC"/>
<path d="M60.7858 37.0005H58.1429V39.6433H60.7858V37.0005Z" fill="#49E7EC"/>
<path d="M63.4275 37.0005H60.7846V39.6433H63.4275V37.0005Z" fill="#49E7EC"/>
<path d="M66.0711 37.0005H63.4283V39.6433H66.0711V37.0005Z" fill="#49E7EC"/>
<path d="M68.7138 37.0005H66.071V39.6433H68.7138V37.0005Z" fill="#49E7EC"/>
<path d="M26.428 39.6432H23.7851V42.286H26.428V39.6432Z" fill="#49E7EC"/>
<path d="M29.0707 39.6432H26.4278V42.286H29.0707V39.6432Z" fill="#49E7EC"/>
<path d="M31.7133 39.6432H29.0705V42.286H31.7133V39.6432Z" fill="#49E7EC"/>
<path d="M34.359 39.6432H31.7161V42.286H34.359V39.6432Z" fill="#49E7EC"/>
<path d="M36.9997 39.6432H34.3568V42.286H36.9997V39.6432Z" fill="#49E7EC"/>
<path d="M39.6433 39.6432H37.0005V42.286H39.6433V39.6432Z" fill="#49E7EC"/>
<path d="M42.286 39.6432H39.6432V42.286H42.286V39.6432Z" fill="#49E7EC"/>
<path d="M44.9287 39.6432H42.2859V42.286H44.9287V39.6432Z" fill="#49E7EC"/>
<path d="M47.5704 39.6432H44.9276V42.286H47.5704V39.6432Z" fill="#49E7EC"/>
<path d="M50.2141 39.6432H47.5712V42.286H50.2141V39.6432Z" fill="#49E7EC"/>
<path d="M52.8558 39.6432H50.2129V42.286H52.8558V39.6432Z" fill="#49E7EC"/>
<path d="M55.5004 39.6432H52.8576V42.286H55.5004V39.6432Z" fill="#49E7EC"/>
<path d="M58.1431 39.6432H55.5002V42.286H58.1431V39.6432Z" fill="#49E7EC"/>
<path d="M60.7858 39.6432H58.1429V42.286H60.7858V39.6432Z" fill="#49E7EC"/>
<path d="M63.4275 39.6432H60.7846V42.286H63.4275V39.6432Z" fill="#49E7EC"/>
<path d="M66.0711 39.6432H63.4283V42.286H66.0711V39.6432Z" fill="#49E7EC"/>
<path d="M29.0707 42.2859H26.4278V44.9287H29.0707V42.2859Z" fill="#49E7EC"/>
<path d="M31.7133 42.2859H29.0705V44.9287H31.7133V42.2859Z" fill="#49E7EC"/>
<path d="M34.359 42.2859H31.7161V44.9287H34.359V42.2859Z" fill="#49E7EC"/>
<path d="M36.9997 42.2859H34.3568V44.9287H36.9997V42.2859Z" fill="#49E7EC"/>
<path d="M39.6433 42.2859H37.0005V44.9287H39.6433V42.2859Z" fill="#49E7EC"/>
<path d="M42.286 42.2859H39.6432V44.9287H42.286V42.2859Z" fill="#49E7EC"/>
<path d="M44.9287 42.2859H42.2859V44.9287H44.9287V42.2859Z" fill="#49E7EC"/>
<path d="M47.5704 42.2859H44.9276V44.9287H47.5704V42.2859Z" fill="#49E7EC"/>
<path d="M50.2141 42.2859H47.5712V44.9287H50.2141V42.2859Z" fill="#49E7EC"/>
<path d="M52.8558 42.2859H50.2129V44.9287H52.8558V42.2859Z" fill="#49E7EC"/>
<path d="M55.5004 42.2859H52.8576V44.9287H55.5004V42.2859Z" fill="#49E7EC"/>
<path d="M58.1431 42.2859H55.5002V44.9287H58.1431V42.2859Z" fill="#49E7EC"/>
<path d="M60.7858 42.2859H58.1429V44.9287H60.7858V42.2859Z" fill="#49E7EC"/>
<path d="M63.4275 42.2859H60.7846V44.9287H63.4275V42.2859Z" fill="#49E7EC"/>
<path d="M34.359 44.9276H31.7161V47.5704H34.359V44.9276Z" fill="#49E7EC"/>
<path d="M36.9997 44.9276H34.3568V47.5704H36.9997V44.9276Z" fill="#49E7EC"/>
<path d="M39.6433 44.9276H37.0005V47.5704H39.6433V44.9276Z" fill="#49E7EC"/>
<path d="M42.286 44.9276H39.6432V47.5704H42.286V44.9276Z" fill="#49E7EC"/>
<path d="M44.9287 44.9276H42.2859V47.5704H44.9287V44.9276Z" fill="#49E7EC"/>
<path d="M47.5704 44.9276H44.9276V47.5704H47.5704V44.9276Z" fill="#49E7EC"/>
<path d="M50.2141 44.9276H47.5712V47.5704H50.2141V44.9276Z" fill="#49E7EC"/>
<path d="M52.8558 44.9276H50.2129V47.5704H52.8558V44.9276Z" fill="#49E7EC"/>
<path d="M55.5004 44.9276H52.8576V47.5704H55.5004V44.9276Z" fill="#49E7EC"/>
<path d="M58.1431 44.9276H55.5002V47.5704H58.1431V44.9276Z" fill="#49E7EC"/>
<path d="M60.7858 44.9276H58.1429V47.5704H60.7858V44.9276Z" fill="#49E7EC"/>
<path d="M42.286 47.5722H39.6432V50.215H42.286V47.5722Z" fill="#49E7EC"/>
<path d="M44.9287 47.5722H42.2859V50.215H44.9287V47.5722Z" fill="#49E7EC"/>
<path d="M47.5704 47.5722H44.9276V50.215H47.5704V47.5722Z" fill="#49E7EC"/>
<path d="M50.2141 47.5722H47.5712V50.215H50.2141V47.5722Z" fill="#49E7EC"/>
<path d="M52.8558 47.5722H50.2129V50.215H52.8558V47.5722Z" fill="#49E7EC"/>
<path d="M55.5004 47.5722H52.8576V50.215H55.5004V47.5722Z" fill="#49E7EC"/>
<path d="M58.1431 47.5722H55.5002V50.215H58.1431V47.5722Z" fill="#49E7EC"/>
<path d="M44.9287 50.2129H42.2859V52.8558H44.9287V50.2129Z" fill="#49E7EC"/>
<path d="M47.5704 50.2129H44.9276V52.8558H47.5704V50.2129Z" fill="#49E7EC"/>
<path d="M50.2141 50.2129H47.5712V52.8558H50.2141V50.2129Z" fill="#49E7EC"/>
<path d="M52.8558 50.2129H50.2129V52.8558H52.8558V50.2129Z" fill="#49E7EC"/>
<path d="M58.1431 50.2129H55.5002V52.8558H58.1431V50.2129Z" fill="#49E7EC"/>
<path d="M60.7858 50.2129H58.1429V52.8558H60.7858V50.2129Z" fill="#49E7EC"/>
<path d="M63.4275 50.2129H60.7846V52.8558H63.4275V50.2129Z" fill="#49E7EC"/>
<path d="M66.0711 50.2129H63.4283V52.8558H66.0711V50.2129Z" fill="#49E7EC"/>
<path d="M52.8558 52.8576H50.2129V55.5004H52.8558V52.8576Z" fill="#49E7EC"/>
<path d="M66.0711 52.8576H63.4283V55.5004H66.0711V52.8576Z" fill="#49E7EC"/>
<path d="M52.8558 55.4993H50.2129V58.1421H52.8558V55.4993Z" fill="#49E7EC"/>
<path d="M55.5004 55.4993H52.8576V58.1421H55.5004V55.4993Z" fill="#49E7EC"/>
<path d="M58.1431 55.4993H55.5002V58.1421H58.1431V55.4993Z" fill="#49E7EC"/>
<path d="M60.7858 55.4993H58.1429V58.1421H60.7858V55.4993Z" fill="#49E7EC"/>
<path d="M60.7858 58.1429H58.1429V60.7858H60.7858V58.1429Z" fill="#49E7EC"/>
</svg>
