<svg width="85" height="50" viewBox="0 0 85 50" fill="none" xmlns="http://www.w3.org/2000/svg">
<path d="M70.3452 0H67.4142V2.93104H70.3452V0Z" fill="#AB1F65"/>
<path d="M73.2762 0H70.3452V2.93104H73.2762V0Z" fill="#AB1F65"/>
<path d="M67.4143 2.93097H64.4832V5.86201H67.4143V2.93097Z" fill="#AB1F65"/>
<path d="M70.3452 2.93097H67.4142V5.86201H70.3452V2.93097Z" fill="#AB1F65"/>
<path d="M73.2762 2.93097H70.3452V5.86201H73.2762V2.93097Z" fill="#AB1F65"/>
<path d="M76.2072 2.93097H73.2761V5.86201H76.2072V2.93097Z" fill="#AB1F65"/>
<path d="M64.4823 5.86193H61.5513V8.79297H64.4823V5.86193Z" fill="#AB1F65"/>
<path d="M67.4143 5.86193H64.4832V8.79297H67.4143V5.86193Z" fill="#AB1F65"/>
<path d="M73.2762 5.86193H70.3452V8.79297H73.2762V5.86193Z" fill="#AB1F65"/>
<path d="M76.2072 5.86193H73.2761V8.79297H76.2072V5.86193Z" fill="#AB1F65"/>
<path d="M79.1381 5.86193H76.2071V8.79297H79.1381V5.86193Z" fill="#AB1F65"/>
<path d="M64.4823 8.7929H61.5513V11.7239H64.4823V8.7929Z" fill="#AB1F65"/>
<path d="M76.2072 8.7929H73.2761V11.7239H76.2072V8.7929Z" fill="#AB1F65"/>
<path d="M79.1381 8.7929H76.2071V11.7239H79.1381V8.7929Z" fill="#AB1F65"/>
<path d="M82.0681 8.7929H79.1371V11.7239H82.0681V8.7929Z" fill="#AB1F65"/>
<path d="M76.2072 11.7239H73.2761V14.6549H76.2072V11.7239Z" fill="#AB1F65"/>
<path d="M79.1381 11.7239H76.2071V14.6549H79.1381V11.7239Z" fill="#AB1F65"/>
<path d="M82.0681 11.7239H79.1371V14.6549H82.0681V11.7239Z" fill="#AB1F65"/>
<path d="M85.0001 11.7239H82.069V14.6549H85.0001V11.7239Z" fill="#AB1F65"/>
<path d="M73.2762 14.6548H70.3452V17.5859H73.2762V14.6548Z" fill="#AB1F65"/>
<path d="M76.2072 14.6548H73.2761V17.5859H76.2072V14.6548Z" fill="#AB1F65"/>
<path d="M79.1381 14.6548H76.2071V17.5859H79.1381V14.6548Z" fill="#AB1F65"/>
<path d="M82.0681 14.6548H79.1371V17.5859H82.0681V14.6548Z" fill="#AB1F65"/>
<path d="M85.0001 14.6548H82.069V17.5859H85.0001V14.6548Z" fill="#AB1F65"/>
<path d="M2.93104 17.5858H0V20.5168H2.93104V17.5858Z" fill="#AB1F65"/>
<path d="M5.86201 17.5858H2.93097V20.5168H5.86201V17.5858Z" fill="#AB1F65"/>
<path d="M8.79297 17.5858H5.86193V20.5168H8.79297V17.5858Z" fill="#AB1F65"/>
<path d="M11.7249 17.5858H8.79388V20.5168H11.7249V17.5858Z" fill="#AB1F65"/>
<path d="M14.6549 17.5858H11.7239V20.5168H14.6549V17.5858Z" fill="#AB1F65"/>
<path d="M17.5859 17.5858H14.6548V20.5168H17.5859V17.5858Z" fill="#AB1F65"/>
<path d="M20.5168 17.5858H17.5858V20.5168H20.5168V17.5858Z" fill="#AB1F65"/>
<path d="M23.4488 17.5858H20.5177V20.5168H23.4488V17.5858Z" fill="#AB1F65"/>
<path d="M26.3788 17.5858H23.4477V20.5168H26.3788V17.5858Z" fill="#AB1F65"/>
<path d="M29.3107 17.5858H26.3797V20.5168H29.3107V17.5858Z" fill="#AB1F65"/>
<path d="M32.2407 17.5858H29.3097V20.5168H32.2407V17.5858Z" fill="#AB1F65"/>
<path d="M35.1727 17.5858H32.2416V20.5168H35.1727V17.5858Z" fill="#AB1F65"/>
<path d="M38.1036 17.5858H35.1726V20.5168H38.1036V17.5858Z" fill="#AB1F65"/>
<path d="M41.0346 17.5858H38.1035V20.5168H41.0346V17.5858Z" fill="#AB1F65"/>
<path d="M43.9646 17.5858H41.0335V20.5168H43.9646V17.5858Z" fill="#AB1F65"/>
<path d="M46.8965 17.5858H43.9655V20.5168H46.8965V17.5858Z" fill="#AB1F65"/>
<path d="M49.8275 17.5858H46.8965V20.5168H49.8275V17.5858Z" fill="#AB1F65"/>
<path d="M52.7585 17.5858H49.8274V20.5168H52.7585V17.5858Z" fill="#AB1F65"/>
<path d="M55.6904 17.5858H52.7594V20.5168H55.6904V17.5858Z" fill="#AB1F65"/>
<path d="M58.6214 17.5858H55.6903V20.5168H58.6214V17.5858Z" fill="#AB1F65"/>
<path d="M61.5523 17.5858H58.6213V20.5168H61.5523V17.5858Z" fill="#AB1F65"/>
<path d="M64.4823 17.5858H61.5513V20.5168H64.4823V17.5858Z" fill="#AB1F65"/>
<path d="M67.4143 17.5858H64.4832V20.5168H67.4143V17.5858Z" fill="#AB1F65"/>
<path d="M70.3452 17.5858H67.4142V20.5168H70.3452V17.5858Z" fill="#AB1F65"/>
<path d="M73.2762 17.5858H70.3452V20.5168H73.2762V17.5858Z" fill="#AB1F65"/>
<path d="M76.2072 17.5858H73.2761V20.5168H76.2072V17.5858Z" fill="#AB1F65"/>
<path d="M79.1381 17.5858H76.2071V20.5168H79.1381V17.5858Z" fill="#AB1F65"/>
<path d="M82.0681 17.5858H79.1371V20.5168H82.0681V17.5858Z" fill="#AB1F65"/>
<path d="M85.0001 17.5858H82.069V20.5168H85.0001V17.5858Z" fill="#AB1F65"/>
<path d="M8.79297 20.5168H5.86193V23.4478H8.79297V20.5168Z" fill="#AB1F65"/>
<path d="M11.7249 20.5168H8.79388V23.4478H11.7249V20.5168Z" fill="#AB1F65"/>
<path d="M14.6549 20.5168H11.7239V23.4478H14.6549V20.5168Z" fill="#AB1F65"/>
<path d="M17.5859 20.5168H14.6548V23.4478H17.5859V20.5168Z" fill="#AB1F65"/>
<path d="M20.5168 20.5168H17.5858V23.4478H20.5168V20.5168Z" fill="#AB1F65"/>
<path d="M23.4488 20.5168H20.5177V23.4478H23.4488V20.5168Z" fill="#FBFFFD"/>
<path d="M26.3788 20.5168H23.4477V23.4478H26.3788V20.5168Z" fill="#AB1F65"/>
<path d="M29.3107 20.5168H26.3797V23.4478H29.3107V20.5168Z" fill="#AB1F65"/>
<path d="M32.2407 20.5168H29.3097V23.4478H32.2407V20.5168Z" fill="#AB1F65"/>
<path d="M35.1727 20.5168H32.2416V23.4478H35.1727V20.5168Z" fill="#AB1F65"/>
<path d="M38.1036 20.5168H35.1726V23.4478H38.1036V20.5168Z" fill="#AB1F65"/>
<path d="M41.0346 20.5168H38.1035V23.4478H41.0346V20.5168Z" fill="#AB1F65"/>
<path d="M43.9646 20.5168H41.0335V23.4478H43.9646V20.5168Z" fill="#AB1F65"/>
<path d="M46.8965 20.5168H43.9655V23.4478H46.8965V20.5168Z" fill="#AB1F65"/>
<path d="M49.8275 20.5168H46.8965V23.4478H49.8275V20.5168Z" fill="#AB1F65"/>
<path d="M52.7585 20.5168H49.8274V23.4478H52.7585V20.5168Z" fill="#AB1F65"/>
<path d="M55.6904 20.5168H52.7594V23.4478H55.6904V20.5168Z" fill="#AB1F65"/>
<path d="M58.6214 20.5168H55.6903V23.4478H58.6214V20.5168Z" fill="#AB1F65"/>
<path d="M61.5523 20.5168H58.6213V23.4478H61.5523V20.5168Z" fill="#AB1F65"/>
<path d="M64.4823 20.5168H61.5513V23.4478H64.4823V20.5168Z" fill="#AB1F65"/>
<path d="M67.4143 20.5168H64.4832V23.4478H67.4143V20.5168Z" fill="#AB1F65"/>
<path d="M70.3452 20.5168H67.4142V23.4478H70.3452V20.5168Z" fill="#AB1F65"/>
<path d="M73.2762 20.5168H70.3452V23.4478H73.2762V20.5168Z" fill="#AB1F65"/>
<path d="M76.2072 20.5168H73.2761V23.4478H76.2072V20.5168Z" fill="#AB1F65"/>
<path d="M79.1381 20.5168H76.2071V23.4478H79.1381V20.5168Z" fill="#AB1F65"/>
<path d="M82.0681 20.5168H79.1371V23.4478H82.0681V20.5168Z" fill="#AB1F65"/>
<path d="M85.0001 20.5168H82.069V23.4478H85.0001V20.5168Z" fill="#AB1F65"/>
<path d="M11.7249 23.4477H8.79388V26.3788H11.7249V23.4477Z" fill="#AB1F65"/>
<path d="M14.6549 23.4477H11.7239V26.3788H14.6549V23.4477Z" fill="#AB1F65"/>
<path d="M17.5859 23.4477H14.6548V26.3788H17.5859V23.4477Z" fill="#AB1F65"/>
<path d="M20.5168 23.4477H17.5858V26.3788H20.5168V23.4477Z" fill="#AB1F65"/>
<path d="M23.4488 23.4477H20.5177V26.3788H23.4488V23.4477Z" fill="#AB1F65"/>
<path d="M26.3788 23.4477H23.4477V26.3788H26.3788V23.4477Z" fill="#AB1F65"/>
<path d="M29.3107 23.4477H26.3797V26.3788H29.3107V23.4477Z" fill="#AB1F65"/>
<path d="M32.2407 23.4477H29.3097V26.3788H32.2407V23.4477Z" fill="#AB1F65"/>
<path d="M35.1727 23.4477H32.2416V26.3788H35.1727V23.4477Z" fill="#AB1F65"/>
<path d="M38.1036 23.4477H35.1726V26.3788H38.1036V23.4477Z" fill="#AB1F65"/>
<path d="M41.0346 23.4477H38.1035V26.3788H41.0346V23.4477Z" fill="#AB1F65"/>
<path d="M43.9646 23.4477H41.0335V26.3788H43.9646V23.4477Z" fill="#AB1F65"/>
<path d="M46.8965 23.4477H43.9655V26.3788H46.8965V23.4477Z" fill="#AB1F65"/>
<path d="M49.8275 23.4477H46.8965V26.3788H49.8275V23.4477Z" fill="#AB1F65"/>
<path d="M52.7585 23.4477H49.8274V26.3788H52.7585V23.4477Z" fill="#AB1F65"/>
<path d="M55.6904 23.4477H52.7594V26.3788H55.6904V23.4477Z" fill="#AB1F65"/>
<path d="M58.6214 23.4477H55.6903V26.3788H58.6214V23.4477Z" fill="#AB1F65"/>
<path d="M61.5523 23.4477H58.6213V26.3788H61.5523V23.4477Z" fill="#AB1F65"/>
<path d="M64.4823 23.4477H61.5513V26.3788H64.4823V23.4477Z" fill="#AB1F65"/>
<path d="M67.4143 23.4477H64.4832V26.3788H67.4143V23.4477Z" fill="#AB1F65"/>
<path d="M70.3452 23.4477H67.4142V26.3788H70.3452V23.4477Z" fill="#AB1F65"/>
<path d="M73.2762 23.4477H70.3452V26.3788H73.2762V23.4477Z" fill="#AB1F65"/>
<path d="M76.2072 23.4477H73.2761V26.3788H76.2072V23.4477Z" fill="#AB1F65"/>
<path d="M79.1381 23.4477H76.2071V26.3788H79.1381V23.4477Z" fill="#AB1F65"/>
<path d="M82.0681 23.4477H79.1371V26.3788H82.0681V23.4477Z" fill="#AB1F65"/>
<path d="M85.0001 23.4477H82.069V26.3788H85.0001V23.4477Z" fill="#AB1F65"/>
<path d="M17.5859 26.3797H14.6548V29.3107H17.5859V26.3797Z" fill="#AB1F65"/>
<path d="M20.5168 26.3797H17.5858V29.3107H20.5168V26.3797Z" fill="#AB1F65"/>
<path d="M23.4488 26.3797H20.5177V29.3107H23.4488V26.3797Z" fill="#AB1F65"/>
<path d="M26.3788 26.3797H23.4477V29.3107H26.3788V26.3797Z" fill="#AB1F65"/>
<path d="M29.3107 26.3797H26.3797V29.3107H29.3107V26.3797Z" fill="#AB1F65"/>
<path d="M32.2407 26.3797H29.3097V29.3107H32.2407V26.3797Z" fill="#AB1F65"/>
<path d="M35.1727 26.3797H32.2416V29.3107H35.1727V26.3797Z" fill="#AB1F65"/>
<path d="M38.1036 26.3797H35.1726V29.3107H38.1036V26.3797Z" fill="#AB1F65"/>
<path d="M41.0346 26.3797H38.1035V29.3107H41.0346V26.3797Z" fill="#AB1F65"/>
<path d="M43.9646 26.3797H41.0335V29.3107H43.9646V26.3797Z" fill="#AB1F65"/>
<path d="M46.8965 26.3797H43.9655V29.3107H46.8965V26.3797Z" fill="#AB1F65"/>
<path d="M49.8275 26.3797H46.8965V29.3107H49.8275V26.3797Z" fill="#AB1F65"/>
<path d="M52.7585 26.3797H49.8274V29.3107H52.7585V26.3797Z" fill="#AB1F65"/>
<path d="M55.6904 26.3797H52.7594V29.3107H55.6904V26.3797Z" fill="#AB1F65"/>
<path d="M58.6214 26.3797H55.6903V29.3107H58.6214V26.3797Z" fill="#AB1F65"/>
<path d="M61.5523 26.3797H58.6213V29.3107H61.5523V26.3797Z" fill="#AB1F65"/>
<path d="M64.4823 26.3797H61.5513V29.3107H64.4823V26.3797Z" fill="#AB1F65"/>
<path d="M67.4143 26.3797H64.4832V29.3107H67.4143V26.3797Z" fill="#AB1F65"/>
<path d="M70.3452 26.3797H67.4142V29.3107H70.3452V26.3797Z" fill="#AB1F65"/>
<path d="M73.2762 26.3797H70.3452V29.3107H73.2762V26.3797Z" fill="#AB1F65"/>
<path d="M76.2072 26.3797H73.2761V29.3107H76.2072V26.3797Z" fill="#AB1F65"/>
<path d="M79.1381 26.3797H76.2071V29.3107H79.1381V26.3797Z" fill="#AB1F65"/>
<path d="M82.0681 26.3797H79.1371V29.3107H82.0681V26.3797Z" fill="#AB1F65"/>
<path d="M8.79297 29.3106H5.86193V32.2417H8.79297V29.3106Z" fill="#AB1F65"/>
<path d="M11.7249 29.3106H8.79388V32.2417H11.7249V29.3106Z" fill="#AB1F65"/>
<path d="M14.6549 29.3106H11.7239V32.2417H14.6549V29.3106Z" fill="#AB1F65"/>
<path d="M17.5859 29.3106H14.6548V32.2417H17.5859V29.3106Z" fill="#AB1F65"/>
<path d="M20.5168 29.3106H17.5858V32.2417H20.5168V29.3106Z" fill="#AB1F65"/>
<path d="M23.4488 29.3106H20.5177V32.2417H23.4488V29.3106Z" fill="#AB1F65"/>
<path d="M26.3788 29.3106H23.4477V32.2417H26.3788V29.3106Z" fill="#AB1F65"/>
<path d="M29.3107 29.3106H26.3797V32.2417H29.3107V29.3106Z" fill="#AB1F65"/>
<path d="M32.2407 29.3106H29.3097V32.2417H32.2407V29.3106Z" fill="#AB1F65"/>
<path d="M35.1727 29.3106H32.2416V32.2417H35.1727V29.3106Z" fill="#AB1F65"/>
<path d="M38.1036 29.3106H35.1726V32.2417H38.1036V29.3106Z" fill="#AB1F65"/>
<path d="M41.0346 29.3106H38.1035V32.2417H41.0346V29.3106Z" fill="#AB1F65"/>
<path d="M43.9646 29.3106H41.0335V32.2417H43.9646V29.3106Z" fill="#AB1F65"/>
<path d="M46.8965 29.3106H43.9655V32.2417H46.8965V29.3106Z" fill="#AB1F65"/>
<path d="M49.8275 29.3106H46.8965V32.2417H49.8275V29.3106Z" fill="#AB1F65"/>
<path d="M52.7585 29.3106H49.8274V32.2417H52.7585V29.3106Z" fill="#AB1F65"/>
<path d="M55.6904 29.3106H52.7594V32.2417H55.6904V29.3106Z" fill="#AB1F65"/>
<path d="M58.6214 29.3106H55.6903V32.2417H58.6214V29.3106Z" fill="#AB1F65"/>
<path d="M61.5523 29.3106H58.6213V32.2417H61.5523V29.3106Z" fill="#AB1F65"/>
<path d="M64.4823 29.3106H61.5513V32.2417H64.4823V29.3106Z" fill="#AB1F65"/>
<path d="M67.4143 29.3106H64.4832V32.2417H67.4143V29.3106Z" fill="#AB1F65"/>
<path d="M70.3452 29.3106H67.4142V32.2417H70.3452V29.3106Z" fill="#AB1F65"/>
<path d="M73.2762 29.3106H70.3452V32.2417H73.2762V29.3106Z" fill="#AB1F65"/>
<path d="M76.2072 29.3106H73.2761V32.2417H76.2072V29.3106Z" fill="#AB1F65"/>
<path d="M79.1381 29.3106H76.2071V32.2417H79.1381V29.3106Z" fill="#AB1F65"/>
<path d="M82.0681 29.3106H79.1371V32.2417H82.0681V29.3106Z" fill="#AB1F65"/>
<path d="M2.93104 32.2416H0V35.1727H2.93104V32.2416Z" fill="#AB1F65"/>
<path d="M5.86201 32.2416H2.93097V35.1727H5.86201V32.2416Z" fill="#AB1F65"/>
<path d="M8.79297 32.2416H5.86193V35.1727H8.79297V32.2416Z" fill="#AB1F65"/>
<path d="M11.7249 32.2416H8.79388V35.1727H11.7249V32.2416Z" fill="#AB1F65"/>
<path d="M14.6549 32.2416H11.7239V35.1727H14.6549V32.2416Z" fill="#AB1F65"/>
<path d="M17.5859 32.2416H14.6548V35.1727H17.5859V32.2416Z" fill="#AB1F65"/>
<path d="M20.5168 32.2416H17.5858V35.1727H20.5168V32.2416Z" fill="#AB1F65"/>
<path d="M23.4488 32.2416H20.5177V35.1727H23.4488V32.2416Z" fill="#AB1F65"/>
<path d="M26.3788 32.2416H23.4477V35.1727H26.3788V32.2416Z" fill="#AB1F65"/>
<path d="M29.3107 32.2416H26.3797V35.1727H29.3107V32.2416Z" fill="#AB1F65"/>
<path d="M32.2407 32.2416H29.3097V35.1727H32.2407V32.2416Z" fill="#AB1F65"/>
<path d="M35.1727 32.2416H32.2416V35.1727H35.1727V32.2416Z" fill="#AB1F65"/>
<path d="M38.1036 32.2416H35.1726V35.1727H38.1036V32.2416Z" fill="#AB1F65"/>
<path d="M41.0346 32.2416H38.1035V35.1727H41.0346V32.2416Z" fill="#AB1F65"/>
<path d="M43.9646 32.2416H41.0335V35.1727H43.9646V32.2416Z" fill="#AB1F65"/>
<path d="M46.8965 32.2416H43.9655V35.1727H46.8965V32.2416Z" fill="#AB1F65"/>
<path d="M49.8275 32.2416H46.8965V35.1727H49.8275V32.2416Z" fill="#AB1F65"/>
<path d="M52.7585 32.2416H49.8274V35.1727H52.7585V32.2416Z" fill="#AB1F65"/>
<path d="M55.6904 32.2416H52.7594V35.1727H55.6904V32.2416Z" fill="#AB1F65"/>
<path d="M58.6214 32.2416H55.6903V35.1727H58.6214V32.2416Z" fill="#AB1F65"/>
<path d="M61.5523 32.2416H58.6213V35.1727H61.5523V32.2416Z" fill="#AB1F65"/>
<path d="M64.4823 32.2416H61.5513V35.1727H64.4823V32.2416Z" fill="#AB1F65"/>
<path d="M67.4143 32.2416H64.4832V35.1727H67.4143V32.2416Z" fill="#AB1F65"/>
<path d="M70.3452 32.2416H67.4142V35.1727H70.3452V32.2416Z" fill="#AB1F65"/>
<path d="M73.2762 32.2416H70.3452V35.1727H73.2762V32.2416Z" fill="#AB1F65"/>
<path d="M76.2072 32.2416H73.2761V35.1727H76.2072V32.2416Z" fill="#AB1F65"/>
<path d="M79.1381 32.2416H76.2071V35.1727H79.1381V32.2416Z" fill="#AB1F65"/>
<path d="M82.0681 32.2416H79.1371V35.1727H82.0681V32.2416Z" fill="#AB1F65"/>
<path d="M20.5168 35.1726H17.5858V38.1036H20.5168V35.1726Z" fill="#AB1F65"/>
<path d="M23.4488 35.1726H20.5177V38.1036H23.4488V35.1726Z" fill="#AB1F65"/>
<path d="M26.3788 35.1726H23.4477V38.1036H26.3788V35.1726Z" fill="#AB1F65"/>
<path d="M29.3107 35.1726H26.3797V38.1036H29.3107V35.1726Z" fill="#AB1F65"/>
<path d="M32.2407 35.1726H29.3097V38.1036H32.2407V35.1726Z" fill="#AB1F65"/>
<path d="M35.1727 35.1726H32.2416V38.1036H35.1727V35.1726Z" fill="#AB1F65"/>
<path d="M38.1036 35.1726H35.1726V38.1036H38.1036V35.1726Z" fill="#AB1F65"/>
<path d="M41.0346 35.1726H38.1035V38.1036H41.0346V35.1726Z" fill="#AB1F65"/>
<path d="M43.9646 35.1726H41.0335V38.1036H43.9646V35.1726Z" fill="#AB1F65"/>
<path d="M46.8965 35.1726H43.9655V38.1036H46.8965V35.1726Z" fill="#AB1F65"/>
<path d="M49.8275 35.1726H46.8965V38.1036H49.8275V35.1726Z" fill="#AB1F65"/>
<path d="M52.7585 35.1726H49.8274V38.1036H52.7585V35.1726Z" fill="#AB1F65"/>
<path d="M55.6904 35.1726H52.7594V38.1036H55.6904V35.1726Z" fill="#AB1F65"/>
<path d="M58.6214 35.1726H55.6903V38.1036H58.6214V35.1726Z" fill="#AB1F65"/>
<path d="M61.5523 35.1726H58.6213V38.1036H61.5523V35.1726Z" fill="#AB1F65"/>
<path d="M64.4823 35.1726H61.5513V38.1036H64.4823V35.1726Z" fill="#AB1F65"/>
<path d="M67.4143 35.1726H64.4832V38.1036H67.4143V35.1726Z" fill="#AB1F65"/>
<path d="M70.3452 35.1726H67.4142V38.1036H70.3452V35.1726Z" fill="#AB1F65"/>
<path d="M73.2762 35.1726H70.3452V38.1036H73.2762V35.1726Z" fill="#AB1F65"/>
<path d="M76.2072 35.1726H73.2761V38.1036H76.2072V35.1726Z" fill="#AB1F65"/>
<path d="M79.1381 35.1726H76.2071V38.1036H79.1381V35.1726Z" fill="#AB1F65"/>
<path d="M23.4488 38.1035H20.5177V41.0346H23.4488V38.1035Z" fill="#AB1F65"/>
<path d="M26.3788 38.1035H23.4477V41.0346H26.3788V38.1035Z" fill="#AB1F65"/>
<path d="M29.3107 38.1035H26.3797V41.0346H29.3107V38.1035Z" fill="#AB1F65"/>
<path d="M32.2407 38.1035H29.3097V41.0346H32.2407V38.1035Z" fill="#AB1F65"/>
<path d="M35.1727 38.1035H32.2416V41.0346H35.1727V38.1035Z" fill="#AB1F65"/>
<path d="M38.1036 38.1035H35.1726V41.0346H38.1036V38.1035Z" fill="#AB1F65"/>
<path d="M41.0346 38.1035H38.1035V41.0346H41.0346V38.1035Z" fill="#AB1F65"/>
<path d="M43.9646 38.1035H41.0335V41.0346H43.9646V38.1035Z" fill="#AB1F65"/>
<path d="M46.8965 38.1035H43.9655V41.0346H46.8965V38.1035Z" fill="#AB1F65"/>
<path d="M49.8275 38.1035H46.8965V41.0346H49.8275V38.1035Z" fill="#AB1F65"/>
<path d="M52.7585 38.1035H49.8274V41.0346H52.7585V38.1035Z" fill="#AB1F65"/>
<path d="M55.6904 38.1035H52.7594V41.0346H55.6904V38.1035Z" fill="#AB1F65"/>
<path d="M58.6214 38.1035H55.6903V41.0346H58.6214V38.1035Z" fill="#AB1F65"/>
<path d="M61.5523 38.1035H58.6213V41.0346H61.5523V38.1035Z" fill="#AB1F65"/>
<path d="M64.4823 38.1035H61.5513V41.0346H64.4823V38.1035Z" fill="#AB1F65"/>
<path d="M67.4143 38.1035H64.4832V41.0346H67.4143V38.1035Z" fill="#AB1F65"/>
<path d="M70.3452 38.1035H67.4142V41.0346H70.3452V38.1035Z" fill="#AB1F65"/>
<path d="M73.2762 38.1035H70.3452V41.0346H73.2762V38.1035Z" fill="#AB1F65"/>
<path d="M29.3107 41.0345H26.3797V43.9656H29.3107V41.0345Z" fill="#AB1F65"/>
<path d="M32.2407 41.0345H29.3097V43.9656H32.2407V41.0345Z" fill="#AB1F65"/>
<path d="M58.6214 41.0345H55.6903V43.9656H58.6214V41.0345Z" fill="#AB1F65"/>
<path d="M61.5523 41.0345H58.6213V43.9656H61.5523V41.0345Z" fill="#AB1F65"/>
<path d="M64.4823 41.0345H61.5513V43.9656H64.4823V41.0345Z" fill="#AB1F65"/>
<path d="M29.3107 43.9655H26.3797V46.8965H29.3107V43.9655Z" fill="#AB1F65"/>
<path d="M58.6214 43.9655H55.6903V46.8965H58.6214V43.9655Z" fill="#AB1F65"/>
<path d="M61.5523 43.9655H58.6213V46.8965H61.5523V43.9655Z" fill="#AB1F65"/>
<path d="M23.4488 46.8965H20.5177V49.8275H23.4488V46.8965Z" fill="#AB1F65"/>
<path d="M26.3788 46.8965H23.4477V49.8275H26.3788V46.8965Z" fill="#AB1F65"/>
<path d="M29.3107 46.8965H26.3797V49.8275H29.3107V46.8965Z" fill="#AB1F65"/>
<path d="M52.7585 46.8965H49.8274V49.8275H52.7585V46.8965Z" fill="#AB1F65"/>
<path d="M55.6904 46.8965H52.7594V49.8275H55.6904V46.8965Z" fill="#AB1F65"/>
<path d="M58.6214 46.8965H55.6903V49.8275H58.6214V46.8965Z" fill="#AB1F65"/>
</svg>
