<svg width="81" height="81" viewBox="0 0 81 81" fill="none" xmlns="http://www.w3.org/2000/svg">
<g clip-path="url(#clip0_257_3785)">
<path d="M67.5002 10.7998H70.2002V13.4998H67.5002V10.7998Z" fill="#0471D3"/>
<path d="M64.8 10.7998H67.5V13.4998H64.8V10.7998Z" fill="#0471D3"/>
<path d="M62.0998 10.7998H64.7998V13.4998H62.0998V10.7998Z" fill="#0471D3"/>
<path d="M72.8996 13.5H75.5996V16.2H72.8996V13.5Z" fill="#0471D3"/>
<path d="M70.2004 13.5H72.9004V16.2H70.2004V13.5Z" fill="#0471D3"/>
<path d="M67.5002 13.5H70.2002V16.2H67.5002V13.5Z" fill="#0471D3"/>
<path d="M64.8 13.5H67.5V16.2H64.8V13.5Z" fill="#0471D3"/>
<path d="M62.0998 13.5H64.7998V16.2H62.0998V13.5Z" fill="#0471D3"/>
<path d="M59.3996 13.5H62.0996V16.2H59.3996V13.5Z" fill="#0471D3"/>
<path d="M75.5998 16.2002H78.2998V18.9002H75.5998V16.2002Z" fill="#0471D3"/>
<path d="M72.8996 16.2002H75.5996V18.9002H72.8996V16.2002Z" fill="#0471D3"/>
<path d="M70.2004 16.2002H72.9004V18.9002H70.2004V16.2002Z" fill="#0471D3"/>
<path d="M67.5002 16.2002H70.2002V18.9002H67.5002V16.2002Z" fill="#0471D3"/>
<path d="M64.8 16.2002H67.5V18.9002H64.8V16.2002Z" fill="white"/>
<path d="M62.0998 16.2002H64.7998V18.9002H62.0998V16.2002Z" fill="#0471D3"/>
<path d="M59.3996 16.2002H62.0996V18.9002H59.3996V16.2002Z" fill="#0471D3"/>
<path d="M75.5998 18.9004H78.2998V21.6004H75.5998V18.9004Z" fill="#0471D3"/>
<path d="M72.8996 18.9004H75.5996V21.6004H72.8996V18.9004Z" fill="#0471D3"/>
<path d="M70.2004 18.9004H72.9004V21.6004H70.2004V18.9004Z" fill="#0471D3"/>
<path d="M67.5002 18.9004H70.2002V21.6004H67.5002V18.9004Z" fill="#0471D3"/>
<path d="M64.8 18.9004H67.5V21.6004H64.8V18.9004Z" fill="#0471D3"/>
<path d="M62.0998 18.9004H64.7998V21.6004H62.0998V18.9004Z" fill="#0471D3"/>
<path d="M59.3996 18.9004H62.0996V21.6004H59.3996V18.9004Z" fill="#0471D3"/>
<path d="M72.8996 21.5996H75.5996V24.2996H72.8996V21.5996Z" fill="#0471D3"/>
<path d="M70.2004 21.5996H72.9004V24.2996H70.2004V21.5996Z" fill="#0471D3"/>
<path d="M67.5002 21.5996H70.2002V24.2996H67.5002V21.5996Z" fill="#0471D3"/>
<path d="M64.8 21.5996H67.5V24.2996H64.8V21.5996Z" fill="#0471D3"/>
<path d="M62.0998 21.5996H64.7998V24.2996H62.0998V21.5996Z" fill="#0471D3"/>
<path d="M59.3996 21.5996H62.0996V24.2996H59.3996V21.5996Z" fill="#0471D3"/>
<path d="M56.7004 21.5996H59.4004V24.2996H56.7004V21.5996Z" fill="#0471D3"/>
<path d="M64.8 24.2998H67.5V26.9998H64.8V24.2998Z" fill="#0471D3"/>
<path d="M62.0998 24.2998H64.7998V26.9998H62.0998V24.2998Z" fill="#0471D3"/>
<path d="M59.3996 24.2998H62.0996V26.9998H59.3996V24.2998Z" fill="#0471D3"/>
<path d="M56.7004 24.2998H59.4004V26.9998H56.7004V24.2998Z" fill="#0471D3"/>
<path d="M62.0998 27H64.7998V29.7H62.0998V27Z" fill="#0471D3"/>
<path d="M59.3996 27H62.0996V29.7H59.3996V27Z" fill="#0471D3"/>
<path d="M56.7004 27H59.4004V29.7H56.7004V27Z" fill="#0471D3"/>
<path d="M62.0998 29.7002H64.7998V32.4002H62.0998V29.7002Z" fill="#0471D3"/>
<path d="M59.3996 29.7002H62.0996V32.4002H59.3996V29.7002Z" fill="#0471D3"/>
<path d="M56.7004 29.7002H59.4004V32.4002H56.7004V29.7002Z" fill="#0471D3"/>
<path d="M54.0002 29.7002H56.7002V32.4002H54.0002V29.7002Z" fill="#0471D3"/>
<path d="M59.3996 32.4004H62.0996V35.1004H59.3996V32.4004Z" fill="#0471D3"/>
<path d="M56.7004 32.4004H59.4004V35.1004H56.7004V32.4004Z" fill="#0471D3"/>
<path d="M54.0002 32.4004H56.7002V35.1004H54.0002V32.4004Z" fill="#0471D3"/>
<path d="M45.8996 32.4004H48.5996V35.1004H45.8996V32.4004Z" fill="#0471D3"/>
<path d="M43.2004 32.4004H45.9004V35.1004H43.2004V32.4004Z" fill="#0471D3"/>
<path d="M40.5002 32.4004H43.2002V35.1004H40.5002V32.4004Z" fill="#0471D3"/>
<path d="M37.8 32.4004H40.5V35.1004H37.8V32.4004Z" fill="#0471D3"/>
<path d="M35.0998 32.4004H37.7998V35.1004H35.0998V32.4004Z" fill="#0471D3"/>
<path d="M32.3996 32.4004H35.0996V35.1004H32.3996V32.4004Z" fill="#0471D3"/>
<path d="M29.7004 32.4004H32.4004V35.1004H29.7004V32.4004Z" fill="#0471D3"/>
<path d="M27.0002 32.4004H29.7002V35.1004H27.0002V32.4004Z" fill="#0471D3"/>
<path d="M24.3 32.4004H27V35.1004H24.3V32.4004Z" fill="#0471D3"/>
<path d="M21.5998 32.4004H24.2998V35.1004H21.5998V32.4004Z" fill="#0471D3"/>
<path d="M18.8996 32.4004H21.5996V35.1004H18.8996V32.4004Z" fill="#0471D3"/>
<path d="M59.3996 35.0996H62.0996V37.7996H59.3996V35.0996Z" fill="#0471D3"/>
<path d="M56.7004 35.0996H59.4004V37.7996H56.7004V35.0996Z" fill="#0471D3"/>
<path d="M54.0002 35.0996H56.7002V37.7996H54.0002V35.0996Z" fill="#0471D3"/>
<path d="M51.3 35.0996H54V37.7996H51.3V35.0996Z" fill="#0471D3"/>
<path d="M48.5998 35.0996H51.2998V37.7996H48.5998V35.0996Z" fill="#0471D3"/>
<path d="M45.8996 35.0996H48.5996V37.7996H45.8996V35.0996Z" fill="#0471D3"/>
<path d="M43.2004 35.0996H45.9004V37.7996H43.2004V35.0996Z" fill="#0471D3"/>
<path d="M40.5002 35.0996H43.2002V37.7996H40.5002V35.0996Z" fill="#0471D3"/>
<path d="M37.8 35.0996H40.5V37.7996H37.8V35.0996Z" fill="#0471D3"/>
<path d="M35.0998 35.0996H37.7998V37.7996H35.0998V35.0996Z" fill="#0471D3"/>
<path d="M32.3996 35.0996H35.0996V37.7996H32.3996V35.0996Z" fill="#0471D3"/>
<path d="M29.7004 35.0996H32.4004V37.7996H29.7004V35.0996Z" fill="#0471D3"/>
<path d="M27.0002 35.0996H29.7002V37.7996H27.0002V35.0996Z" fill="#0471D3"/>
<path d="M24.3 35.0996H27V37.7996H24.3V35.0996Z" fill="#0471D3"/>
<path d="M21.5998 35.0996H24.2998V37.7996H21.5998V35.0996Z" fill="#0471D3"/>
<path d="M18.8996 35.0996H21.5996V37.7996H18.8996V35.0996Z" fill="#0471D3"/>
<path d="M16.2004 35.0996H18.9004V37.7996H16.2004V35.0996Z" fill="#0471D3"/>
<path d="M13.5002 35.0996H16.2002V37.7996H13.5002V35.0996Z" fill="#0471D3"/>
<path d="M10.8 35.0996H13.5V37.7996H10.8V35.0996Z" fill="#0471D3"/>
<path d="M59.3996 37.7998H62.0996V40.4998H59.3996V37.7998Z" fill="#0471D3"/>
<path d="M56.7004 37.7998H59.4004V40.4998H56.7004V37.7998Z" fill="#0471D3"/>
<path d="M54.0002 37.7998H56.7002V40.4998H54.0002V37.7998Z" fill="#0471D3"/>
<path d="M51.3 37.7998H54V40.4998H51.3V37.7998Z" fill="#0471D3"/>
<path d="M48.5998 37.7998H51.2998V40.4998H48.5998V37.7998Z" fill="#0471D3"/>
<path d="M45.8996 37.7998H48.5996V40.4998H45.8996V37.7998Z" fill="#0471D3"/>
<path d="M43.2004 37.7998H45.9004V40.4998H43.2004V37.7998Z" fill="#0471D3"/>
<path d="M40.5002 37.7998H43.2002V40.4998H40.5002V37.7998Z" fill="#0471D3"/>
<path d="M37.8 37.7998H40.5V40.4998H37.8V37.7998Z" fill="#0471D3"/>
<path d="M35.0998 37.7998H37.7998V40.4998H35.0998V37.7998Z" fill="#0471D3"/>
<path d="M32.3996 37.7998H35.0996V40.4998H32.3996V37.7998Z" fill="#0471D3"/>
<path d="M29.7004 37.7998H32.4004V40.4998H29.7004V37.7998Z" fill="#0471D3"/>
<path d="M27.0002 37.7998H29.7002V40.4998H27.0002V37.7998Z" fill="#0471D3"/>
<path d="M24.3 37.7998H27V40.4998H24.3V37.7998Z" fill="#0471D3"/>
<path d="M21.5998 37.7998H24.2998V40.4998H21.5998V37.7998Z" fill="#0471D3"/>
<path d="M18.8996 37.7998H21.5996V40.4998H18.8996V37.7998Z" fill="#0471D3"/>
<path d="M16.2004 37.7998H18.9004V40.4998H16.2004V37.7998Z" fill="#0471D3"/>
<path d="M13.5002 37.7998H16.2002V40.4998H13.5002V37.7998Z" fill="#0471D3"/>
<path d="M10.8 37.7998H13.5V40.4998H10.8V37.7998Z" fill="#0471D3"/>
<path d="M8.0998 37.7998H10.7998V40.4998H8.0998V37.7998Z" fill="#0471D3"/>
<path d="M59.3996 40.5H62.0996V43.2H59.3996V40.5Z" fill="#0471D3"/>
<path d="M56.7004 40.5H59.4004V43.2H56.7004V40.5Z" fill="#0471D3"/>
<path d="M54.0002 40.5H56.7002V43.2H54.0002V40.5Z" fill="#0471D3"/>
<path d="M51.3 40.5H54V43.2H51.3V40.5Z" fill="#0471D3"/>
<path d="M48.5998 40.5H51.2998V43.2H48.5998V40.5Z" fill="#0471D3"/>
<path d="M45.8996 40.5H48.5996V43.2H45.8996V40.5Z" fill="#0471D3"/>
<path d="M43.2004 40.5H45.9004V43.2H43.2004V40.5Z" fill="#0471D3"/>
<path d="M40.5002 40.5H43.2002V43.2H40.5002V40.5Z" fill="#0471D3"/>
<path d="M37.8 40.5H40.5V43.2H37.8V40.5Z" fill="#0471D3"/>
<path d="M35.0998 40.5H37.7998V43.2H35.0998V40.5Z" fill="#0471D3"/>
<path d="M32.3996 40.5H35.0996V43.2H32.3996V40.5Z" fill="#0471D3"/>
<path d="M29.7004 40.5H32.4004V43.2H29.7004V40.5Z" fill="#0471D3"/>
<path d="M27.0002 40.5H29.7002V43.2H27.0002V40.5Z" fill="#0471D3"/>
<path d="M24.3 40.5H27V43.2H24.3V40.5Z" fill="#0471D3"/>
<path d="M21.5998 40.5H24.2998V43.2H21.5998V40.5Z" fill="#0471D3"/>
<path d="M18.8996 40.5H21.5996V43.2H18.8996V40.5Z" fill="#0471D3"/>
<path d="M16.2004 40.5H18.9004V43.2H16.2004V40.5Z" fill="#0471D3"/>
<path d="M13.5002 40.5H16.2002V43.2H13.5002V40.5Z" fill="#0471D3"/>
<path d="M10.8 40.5H13.5V43.2H10.8V40.5Z" fill="#0471D3"/>
<path d="M8.0998 40.5H10.7998V43.2H8.0998V40.5Z" fill="#0471D3"/>
<path d="M56.7004 43.2002H59.4004V45.9002H56.7004V43.2002Z" fill="#0471D3"/>
<path d="M54.0002 43.2002H56.7002V45.9002H54.0002V43.2002Z" fill="#0471D3"/>
<path d="M51.3 43.2002H54V45.9002H51.3V43.2002Z" fill="#0471D3"/>
<path d="M48.5998 43.2002H51.2998V45.9002H48.5998V43.2002Z" fill="#0471D3"/>
<path d="M45.8996 43.2002H48.5996V45.9002H45.8996V43.2002Z" fill="#0471D3"/>
<path d="M43.2004 43.2002H45.9004V45.9002H43.2004V43.2002Z" fill="#0471D3"/>
<path d="M40.5002 43.2002H43.2002V45.9002H40.5002V43.2002Z" fill="#0471D3"/>
<path d="M37.8 43.2002H40.5V45.9002H37.8V43.2002Z" fill="#0471D3"/>
<path d="M35.0998 43.2002H37.7998V45.9002H35.0998V43.2002Z" fill="#0471D3"/>
<path d="M32.3996 43.2002H35.0996V45.9002H32.3996V43.2002Z" fill="#0471D3"/>
<path d="M29.7004 43.2002H32.4004V45.9002H29.7004V43.2002Z" fill="#0471D3"/>
<path d="M27.0002 43.2002H29.7002V45.9002H27.0002V43.2002Z" fill="#0471D3"/>
<path d="M24.3 43.2002H27V45.9002H24.3V43.2002Z" fill="#0471D3"/>
<path d="M21.5998 43.2002H24.2998V45.9002H21.5998V43.2002Z" fill="#0471D3"/>
<path d="M18.8996 43.2002H21.5996V45.9002H18.8996V43.2002Z" fill="#0471D3"/>
<path d="M16.2004 43.2002H18.9004V45.9002H16.2004V43.2002Z" fill="#0471D3"/>
<path d="M13.5002 43.2002H16.2002V45.9002H13.5002V43.2002Z" fill="#0471D3"/>
<path d="M10.8 43.2002H13.5V45.9002H10.8V43.2002Z" fill="#0471D3"/>
<path d="M8.0998 43.2002H10.7998V45.9002H8.0998V43.2002Z" fill="#0471D3"/>
<path d="M5.39961 43.2002H8.09961V45.9002H5.39961V43.2002Z" fill="#0471D3"/>
<path d="M56.7004 45.9004H59.4004V48.6004H56.7004V45.9004Z" fill="#0471D3"/>
<path d="M54.0002 45.9004H56.7002V48.6004H54.0002V45.9004Z" fill="#0471D3"/>
<path d="M51.3 45.9004H54V48.6004H51.3V45.9004Z" fill="#0471D3"/>
<path d="M48.5998 45.9004H51.2998V48.6004H48.5998V45.9004Z" fill="#0471D3"/>
<path d="M45.8996 45.9004H48.5996V48.6004H45.8996V45.9004Z" fill="#0471D3"/>
<path d="M43.2004 45.9004H45.9004V48.6004H43.2004V45.9004Z" fill="#0471D3"/>
<path d="M40.5002 45.9004H43.2002V48.6004H40.5002V45.9004Z" fill="#0471D3"/>
<path d="M37.8 45.9004H40.5V48.6004H37.8V45.9004Z" fill="#0471D3"/>
<path d="M35.0998 45.9004H37.7998V48.6004H35.0998V45.9004Z" fill="#0471D3"/>
<path d="M32.3996 45.9004H35.0996V48.6004H32.3996V45.9004Z" fill="#0471D3"/>
<path d="M29.7004 45.9004H32.4004V48.6004H29.7004V45.9004Z" fill="#0471D3"/>
<path d="M27.0002 45.9004H29.7002V48.6004H27.0002V45.9004Z" fill="#0471D3"/>
<path d="M24.3 45.9004H27V48.6004H24.3V45.9004Z" fill="#0471D3"/>
<path d="M21.5998 45.9004H24.2998V48.6004H21.5998V45.9004Z" fill="#0471D3"/>
<path d="M18.8996 45.9004H21.5996V48.6004H18.8996V45.9004Z" fill="#0471D3"/>
<path d="M16.2004 45.9004H18.9004V48.6004H16.2004V45.9004Z" fill="#0471D3"/>
<path d="M13.5002 45.9004H16.2002V48.6004H13.5002V45.9004Z" fill="#0471D3"/>
<path d="M10.8 45.9004H13.5V48.6004H10.8V45.9004Z" fill="#0471D3"/>
<path d="M8.0998 45.9004H10.7998V48.6004H8.0998V45.9004Z" fill="#0471D3"/>
<path d="M5.39961 45.9004H8.09961V48.6004H5.39961V45.9004Z" fill="#0471D3"/>
<path d="M56.7004 48.5996H59.4004V51.2996H56.7004V48.5996Z" fill="#0471D3"/>
<path d="M54.0002 48.5996H56.7002V51.2996H54.0002V48.5996Z" fill="#0471D3"/>
<path d="M51.3 48.5996H54V51.2996H51.3V48.5996Z" fill="#0471D3"/>
<path d="M48.5998 48.5996H51.2998V51.2996H48.5998V48.5996Z" fill="#0471D3"/>
<path d="M45.8996 48.5996H48.5996V51.2996H45.8996V48.5996Z" fill="#0471D3"/>
<path d="M43.2004 48.5996H45.9004V51.2996H43.2004V48.5996Z" fill="#0471D3"/>
<path d="M40.5002 48.5996H43.2002V51.2996H40.5002V48.5996Z" fill="#0471D3"/>
<path d="M37.8 48.5996H40.5V51.2996H37.8V48.5996Z" fill="#0471D3"/>
<path d="M35.0998 48.5996H37.7998V51.2996H35.0998V48.5996Z" fill="#0471D3"/>
<path d="M32.3996 48.5996H35.0996V51.2996H32.3996V48.5996Z" fill="#0471D3"/>
<path d="M29.7004 48.5996H32.4004V51.2996H29.7004V48.5996Z" fill="#0471D3"/>
<path d="M27.0002 48.5996H29.7002V51.2996H27.0002V48.5996Z" fill="#0471D3"/>
<path d="M24.3 48.5996H27V51.2996H24.3V48.5996Z" fill="#0471D3"/>
<path d="M21.5998 48.5996H24.2998V51.2996H21.5998V48.5996Z" fill="#0471D3"/>
<path d="M18.8996 48.5996H21.5996V51.2996H18.8996V48.5996Z" fill="#0471D3"/>
<path d="M16.2004 48.5996H18.9004V51.2996H16.2004V48.5996Z" fill="#0471D3"/>
<path d="M13.5002 48.5996H16.2002V51.2996H13.5002V48.5996Z" fill="#0471D3"/>
<path d="M8.0998 48.5996H10.7998V51.2996H8.0998V48.5996Z" fill="#0471D3"/>
<path d="M5.39961 48.5996H8.09961V51.2996H5.39961V48.5996Z" fill="#0471D3"/>
<path d="M54.0002 51.2998H56.7002V53.9998H54.0002V51.2998Z" fill="#0471D3"/>
<path d="M51.3 51.2998H54V53.9998H51.3V51.2998Z" fill="#0471D3"/>
<path d="M48.5998 51.2998H51.2998V53.9998H48.5998V51.2998Z" fill="#0471D3"/>
<path d="M45.8996 51.2998H48.5996V53.9998H45.8996V51.2998Z" fill="#0471D3"/>
<path d="M43.2004 51.2998H45.9004V53.9998H43.2004V51.2998Z" fill="#0471D3"/>
<path d="M40.5002 51.2998H43.2002V53.9998H40.5002V51.2998Z" fill="#0471D3"/>
<path d="M37.8 51.2998H40.5V53.9998H37.8V51.2998Z" fill="#0471D3"/>
<path d="M35.0998 51.2998H37.7998V53.9998H35.0998V51.2998Z" fill="#0471D3"/>
<path d="M32.3996 51.2998H35.0996V53.9998H32.3996V51.2998Z" fill="#0471D3"/>
<path d="M29.7004 51.2998H32.4004V53.9998H29.7004V51.2998Z" fill="#0471D3"/>
<path d="M27.0002 51.2998H29.7002V53.9998H27.0002V51.2998Z" fill="#0471D3"/>
<path d="M24.3 51.2998H27V53.9998H24.3V51.2998Z" fill="#0471D3"/>
<path d="M21.5998 51.2998H24.2998V53.9998H21.5998V51.2998Z" fill="#0471D3"/>
<path d="M18.8996 51.2998H21.5996V53.9998H18.8996V51.2998Z" fill="#0471D3"/>
<path d="M16.2004 51.2998H18.9004V53.9998H16.2004V51.2998Z" fill="#0471D3"/>
<path d="M8.0998 51.2998H10.7998V53.9998H8.0998V51.2998Z" fill="#0471D3"/>
<path d="M5.39961 51.2998H8.09961V53.9998H5.39961V51.2998Z" fill="#0471D3"/>
<path d="M54.0002 54H56.7002V56.7H54.0002V54Z" fill="#0471D3"/>
<path d="M51.3 54H54V56.7H51.3V54Z" fill="#0471D3"/>
<path d="M45.8996 54H48.5996V56.7H45.8996V54Z" fill="#0471D3"/>
<path d="M43.2004 54H45.9004V56.7H43.2004V54Z" fill="#0471D3"/>
<path d="M27.0002 54H29.7002V56.7H27.0002V54Z" fill="#0471D3"/>
<path d="M24.3 54H27V56.7H24.3V54Z" fill="#0471D3"/>
<path d="M18.8996 54H21.5996V56.7H18.8996V54Z" fill="#0471D3"/>
<path d="M5.39961 54H8.09961V56.7H5.39961V54Z" fill="#0471D3"/>
<path d="M2.70039 54H5.40039V56.7H2.70039V54Z" fill="#0471D3"/>
<path d="M54.0002 56.7002H56.7002V59.4002H54.0002V56.7002Z" fill="#0471D3"/>
<path d="M45.8996 56.7002H48.5996V59.4002H45.8996V56.7002Z" fill="#0471D3"/>
<path d="M27.0002 56.7002H29.7002V59.4002H27.0002V56.7002Z" fill="#0471D3"/>
<path d="M18.8996 56.7002H21.5996V59.4002H18.8996V56.7002Z" fill="#0471D3"/>
<path d="M5.39961 56.7002H8.09961V59.4002H5.39961V56.7002Z" fill="#0471D3"/>
<path d="M2.70039 56.7002H5.40039V59.4002H2.70039V56.7002Z" fill="#0471D3"/>
<path d="M59.3996 59.4004H62.0996V62.1004H59.3996V59.4004Z" fill="#0471D3"/>
<path d="M56.7004 59.4004H59.4004V62.1004H56.7004V59.4004Z" fill="#0471D3"/>
<path d="M54.0002 59.4004H56.7002V62.1004H54.0002V59.4004Z" fill="#0471D3"/>
<path d="M48.5998 59.4004H51.2998V62.1004H48.5998V59.4004Z" fill="#0471D3"/>
<path d="M45.8996 59.4004H48.5996V62.1004H45.8996V59.4004Z" fill="#0471D3"/>
<path d="M32.3996 59.4004H35.0996V62.1004H32.3996V59.4004Z" fill="#0471D3"/>
<path d="M29.7004 59.4004H32.4004V62.1004H29.7004V59.4004Z" fill="#0471D3"/>
<path d="M27.0002 59.4004H29.7002V62.1004H27.0002V59.4004Z" fill="#0471D3"/>
<path d="M21.5998 59.4004H24.2998V62.1004H21.5998V59.4004Z" fill="#0471D3"/>
<path d="M18.8996 59.4004H21.5996V62.1004H18.8996V59.4004Z" fill="#0471D3"/>
<path d="M2.70039 59.4004H5.40039V62.1004H2.70039V59.4004Z" fill="#0471D3"/>
<path d="M0.000195503 59.4004H2.7002V62.1004H0.000195503V59.4004Z" fill="#0471D3"/>
</g>
<defs>
<clipPath id="clip0_257_3785">
<rect width="81" height="81" fill="white" transform="matrix(-1 0 0 1 81 0)"/>
</clipPath>
</defs>
</svg>
